<mxfile host="app.diagrams.net" agent="Mozilla/5.0 (Windows NT 10.0; Win64; x64) AppleWebKit/537.36 (KHTML, like Gecko) Chrome/136.0.0.0 Safari/537.36 Edg/136.0.0.0" version="27.0.4">
  <diagram name="Page-1" id="vE1CmcztOOWlCYQRCBXe">
    <mxGraphModel dx="1953" dy="474" grid="1" gridSize="10" guides="1" tooltips="1" connect="1" arrows="1" fold="1" page="1" pageScale="1" pageWidth="850" pageHeight="1100" math="0" shadow="0">
      <root>
        <mxCell id="0" />
        <mxCell id="1" parent="0" />
        <mxCell id="3fPQWfM7E3m9hAF7NcHF-1" value="" style="shape=image;verticalLabelPosition=bottom;labelBackgroundColor=default;verticalAlign=top;aspect=fixed;imageAspect=0;image=data:image/png,iVBORw0KGgoAAAANSUhEUgAAA1IAAAGNCAMAAAAsD7DmAAAABGdBTUEAALGPC/xhBQAAAAFzUkdCAK7OHOkAAAGAUExURf///wICAouLi0BAQPn5+VZWViIiIv39/fv7+wAAAFxcXMPDw0xMTF5eXsvLy7m5uUpKSioqKvf39wgICO/v7/Pz8wwMDN/f32xsbOfn52pqaqurq3BwcBgYGFhYWOvr69fX1ywsLGZmZkhISNnZ2TAwMPHx8e3t7XJycoWFhZeXl/X19b29vaGhoZ2dnRQUFLW1tTIyMtPT0ygoKJOTk3p6euPj47e3t8/Pz4mJib+/vwQEBMHBweXl5cnJyVBQUCYmJh4eHhwcHH5+fg4ODqOjo6Wlpd3d3VRUVBoaGpubmxYWFru7uy4uLuHh4UZGRjg4OJmZmVJSUunp6c3NzTY2NtHR0T4+PsfHx3R0dDQ0NNXV1Y+PjyAgIGBgYE5OTtvb22JiYiQkJLGxsa+vr8XFxQYGBmhoaGRkZHx8fKenp0RERJGRkYeHh25ubjo6Ojw8PHh4eFpaWqmpqYGBgRISEp+fn5WVlRAQEI2NjQoKCoODg3Z2drOzs0JCQq2trWAD2RgAACAASURBVHgB7V2HQts6FL2AwRZQRiAEKGWvEiiz7L0pu0DZs8wyymrLKv31d2RnEiexkzCf1PeILMvS1ZGOrnQtS0TCCQQEAgIBgYBAQCAgEBAICAQEAgIBgYBAQCAgEBAICAQEAgIBgYBAQCAgEBAICAQEAgIBgYBAQCAgEBAICAQEAgIBgYBAQCAgEBAICAQEAgIBgYBAQCAgEBAICAQEAgIBgYBAQCAgEAiEgPIETg4kAL8nP4EQyosQIhgUT4JEMCGepj506jygYE8CjY5QD4KCNSNxXyAgEIgkAjINHfbEPbZLLQ8os0yWxfrHliGu/nCCAnWCMnX+fHQh4goGggjRvL71+FLcBhHCcrb1BFL4lnPpR4CGonwef/ym6ivTg5Cew46A4JFCyyO1m/GP6tZSoq4CIIVRH1lSdmPfPaoQ8e/GWVJALGQaY7X7548qxdohi5UDSaFQZcboI9dH/H5aFyrev5NpZo7Frj0qEnqJ78ewff9SkdIdV/i41aMn1IOwzZLqjUAVSEC2ePRH4CgBCmnolkL5vRkBY8qkTM5ZH1cKmT6y5oBZyFTJPpEUUNIwb8q0w3J5F+LXKdR+cx4ogt8njd9QKDU2GKV+siB9sfHsDMdU6D3LDhS7p/BxqydQ3o57Mv3+EJxS1dP0YP4V2UuJmkeDU2o8j6TI5vsgNfrMZgO2VU6pCrI8eCySl7JCTcEplTb8yEhYqH44GKWm2MQjS+ELrIV+sL1Azbpnn+y+jz1piEQVowYo9SVgSwtURkP3FPr2wQCl0h9XCtkQpaYftxuUKdkApWIfFwmwyQilnkNLXQTWUr0vQUtNC0q5NLYRLQWFbaibCDHS66HU8wz8BKWMNSyhpVw4vR5KTT3LXEpQytVUAnoEpVzwvB5KCS3lqjQvj0xi4OcERMylnEiIuZQLCfMeQSk3ZoJSLiyMmCeElnLB5eUJn1KONyiy5rTEVb+P1ytjr4uwB37O1zg+Qmg3POTh+Tpje8nAg42ZJ/y9l5J1oHgokDtLv0KEafHzlsKRnwcA3OuWwo/PCKUMzqU0BLzylBW3BEakcQupUDhzKQ8hDKHgztflMyBueJRyyOghKhqmGy6XIA6P3zthUcophKchLpAQXArd+2FRylE2j8biJxcVCy1/PTzCm0vpSKFbVHfN6MnAX+8HN6Kb11JBRHEL5dcXHqWQrH5x/eYXyo2wKIX2Y+2w5Ukk2y1DWellExMTpXwtTfrQTGneRAcvgH0oq6xxyN2v2y16UoZDKdSTZcbWYSeySxONZemNE7Y8BTlbhjrS0ztsnGiyrbEsa8j1VkuxI1AH2zAohTe0StlEI0ov2alxoiy9Y8I2g1LLE/BnDanLPrJsZXm2LLX4yFyxukHxhCQsSkGK9ImJdEhhKUMdZE1wXABQ40Re+gwHAOuIbHl5tkaPHBWrx4XTa4RSxrSUZOtIL2ucmLBlWdA0NNRb2B7ajJbXt4GpYqffmbv/33AoJc9M5NkdEqCK8mwzXvlKOi3CRxBpYWU+WLxwKCVT1r+jtdrc/d/vaztTU1nG1M/5k/JOmf6krrL+8Vws/6fk1O7dpZJlLrxMxf9uRxv03pSGQSmwtrLhbilx83I2tXV9fJeVnE5t5vxQqLmkgLWNL/HXkWU/a9vqU7/wnCHzSW9UfV8el+iBC4NSJDdPH8fEbJ4kxZ7RYckNK5ifW8v5pChF8Hen/sPiE9oc7x+tXdPeasnXW2zkc6OuEKEP/GSq+9QyebqWnbB/N909wnpO57rKb2eIhkv6WRwHQKHy8V+/lr56ZFyUqFMjRihlREvJZKsdj9otmJqv7erL/GvR8q3o/cw7Pe4sK6dsyEOaB1Xy8DIcSkl341cljrwSS9JGCz7rFPxhhl7XMnVc9t54BelchEEpmfLLq1Bf1sFV1kuUx+5JkvM+p1UAoQS2qOEk03KBAzGsXku+1l8iFzqloCdvW4rR6S/EMFZHNMnAG/tF9TsootL+eq4z4WRaWlB9MpXOlWTmzLPDModUHpiETimZqu520PHasnfZMVnoHctDa6kZ6YIGiGX5TiGyPzsIRX0leyfzUetQIR75q94wtJRM7xcr0Wo77m5YDmHWcQEmL8fE1aHpnLBOpxSXHgsMFPrEsLjpoRCGBn7GtBQ05movV0+WuvL+SZ/1FhIdYV2TDwo+AjkCwqEUGknS7qGqHiHO+rVXrjIN6Gnrh3JItM4ehj28Dp1S6IDmm6CIoDCz4n6hHe1OkhWd8fHVMlEjWyEMxdCY5dI5gspXHUjIfutUIGow9AVJ8ZdcCPR6+wzUymXELxZuPiH/6iVNCLLSYbPammX61MdnmMfsoxeiDvFCNE8odPTVruZLgyyaymiRWblGWO5vUSibWZAhnJ1ub1V5oLuPMP61vmPfNYqpuTv+hE4phaqK0FFIGI7XsHKiTiSPIa7ys0ixY0HwjJaXhb5kOlDhU6bkL6xLp0YipaXQAOyU2ksS0CDamCvhillWLGg03EYhyw5K8S8HjfAqLEqhcXZX5xDPyEqbg2qxIQXPV6HOUQCkSqH9hXyqRI4fiIqIKIxKKR7Fs9K8/KFTiuhrtkoWwPIF/RDtHkJI9EZp6CEn2LWzokqXXI1XoboIU0qmigLoRtScRMVXs1wnoHi4KOpGrqCU1gFLdN/skGKaMNGg0vpql1QuPELVUuDOh2K1waJ+lvpQX+WgFMkWWqu20x4DfbiT6PZSlQcjUYkLkcTGtGau3df+hkwpzJh6d7T0ZZosJFpg20heom0oKLplWVqBFZrOVmMhOwxkovPa1p2XHmIYoZQxLQURQCk0QBl4dGxhNqBRh/9gYvCkWoqknzWsigsj0dogflVZIAXGOpNRqgrwwIB7NWHxVxUXGvcxtRSGcR/quHTcpa9BKpVS+EUdQUt5UsrJ6IhrKRC4m48zuVMop1nVUvBbaJgh2INS0FJaNBUcC53yTuCBC5FSqJL4YUdSWNjfAEpxLcXxP2GlXEtpN12UwiVqSKKm+lI9IUKcS6H896h6npdM32+5luKUUjAIbyJVS6n3FK6lnCM9paWSHllLQQCNUpBLooGbBRCp1JZgpfTvrTAbkTrwo4SxygG9mSUvjacLS0sBmFr6vDukVg20FJqlvLydxPXAbBFrq/r3vmnnYoP+JS9sJxMl/3s/hChD779n8ZgYuG7QRKdGqZr2mh96DFRFDVlL4eOiVM+pgEYpNBX7VfSTUUqhnWrHHEEtjcQHfmiv0FKHAEqXUjyiRKe3uP/AhUopKk099kxNUinFdeW7EkmXUsgaH4DdNal15S1FqFoKHJ0q95ACQxlQSgLf3+9iQMwHfk5KObWUTH9XKHRKmdRSKKZMeb3XM0eZk1usOL9rOPrf1hcHpX6znpRZHTS8seH9ZjjvpYhqZfo6jmYr8YEfiPLpem3qfIPkwVMWlbt23h1Vn0DxI6y2j6hvcquTSn9f78cnRsvU/Dl2dz+atSWd8756kY3n6hm4VHHDoFTqnAsDVXc6Bn5n9RPelPKIFum5lISXs6Uu2BUgxSmFMv/9wKcp/igFM39ivtbCXA+rj4U0l8LMjf31hEKjFHqXhJHfpEsp5G1fKBod85UBIaFpKZk22BcPKfBNP9dSGGTObaIL8aSUQ0vhiTuoqyfUUhBv9d5aOc2iWHHiV6LmtioHpYYOfAwXnjXj8keAUqUl56RYtLlUdAvhi88iTPR+sDQ0pPTeM4xwxrZURbaN0cXRZyA49uuSbNs9rPty8L3ylVMq4SOsQC6hHnjCoFT/T9cAAonKlNFdZytOiN2qhP+JBn4S7TOulJ1OonNW0zg0e1u9Ai3gl1IY/Bw5H/H4DVFLKfh6vtLVmJEep9RFo615pfpS8ael0s+r21h/jW/FhE6pb0ybcWsl4kQvb7TVbad2ZaGZeFJK01JQazlJuMPW8eehe4S5FM9CobhuzPHTotgsi+U4VXBK2agJ5ho+Iw7qwqYUAE8aqYB9BlqKZroXOoptGVFNRFUsLQ898v6SBfad+QZE24EGn00FdhZq2G0mGmeFsECpA7/fg9BzfsUNg1K9Dyj16+b+dGq9AiZRb0pNuZpbxOdSEuVwo7nLSRTP5k9P52+TgIlMo27zxOQ3XDscXpCdeb/m026ETKkEbzsDp9Tp/OnPvgQ+wsh0z6U+3ro6IVnOmq5nk76f/odOqXw24Eqet94EVhBzOrf3D4N+CSZOl3niy4kaTaGB77zcT6ul4n6SYm9jLP+WYcDF8TliQ9sDvAM04sKnFDL6lDZLKqV+RM2htRwWXJCmpWS6yAB5ZmLuQZjyOgz+SgAVjDiwE1IBrKhWbvGz/MHowtWYfKUOg1L77hEdsnCaJ7i+8qbUkguuiFMKE4WMLFeh+BxKHfhpIf7mUrBpXCa4ZHI9zQUPaeCH0v5SB+bObB0DP/VSX0vxWwBjBB30w7oJnVLpvSvuUmEorpkn1Jy8B36qllIoaen2KDp6hY0foRdUhXX/eRwthVHo6jXeJoBSyxS9uhvfjBa7wu5+SoGaqFuqCMylgLtMmVsd3OKnTnnVkjsGfiBPWgPR9kAthsxdGAjWpnJE0TePc0rl4F0Arbdlx6p2eE+xvPxhUOrHqstGo8qFuZQVe0Oo/vSbz87qzcp0VVjEKYV3Y73/nMkjY04pRcFLEC4ETMklDiFgDXM1XkB6lKwLSsiUosNslxCqFIssnb+KUf0NzleZgPqHExQuHiyAbMj5nKtSQqcUxeLzeV5wtdnwudQ/rNFSoeCdu0NNoyeu4FIoMK7vMu7amG8HY4RSRlZPQBYvi99FBgz6GqUovaE7aoBAqaZUvNXTBFelD/AnAlqKY5SSq2qpRSwOkCRoJEnTUoAl9pA6qqjwlCp5Xa3GcbnwO6xpKVAqsS05o8+Js66kYVDKPoXXuRwJyPj+BzmM6DwXqPHTTbXVot20/3bBhaUUEX8vdYLXKoCCv+NovrZ4a6mDejuC+a2JlVKHFLhoqcKOLC6huMCaC5FSgPxffZn2dkyhshYb4b2UMzvsEHa1gBgcJUvFN6cQvKVL1NLtO8sNlVLIoxXTageDrNffMO/mRnTVKTR7VaNJoSi/d7Rgu62xo7FjBrNz33UDRihl0uLHxxB5Bdj8iazQUt/4y9K8qZ4sUGpmYmSND20MuDApJcPix5tnR/+/HLD5grXw94Pb/xwDP+CywhqTKqn5avmY9zPlH2z4CzAw50vVtFQio79p14E4FTKlIFhNzw6aqwW12J5dKqmrJxyoYHlCbwfsKugALHfLLrQiTymsg+qORvl4V5NVOKsO/OBVHWaYV2hUEl+8cHThFAJjxVZ+eznZGaLFxt9QKYUHh7swpeNLBOTLT1TKRxScy2qapQVQ0xI4TK2XPA+H46tO9rxs79qNkCmFmi+8BznUhQrXML8s8NUTzkSln2jMqCuiJNf6Ou3eI8+lZCt/L2XhFUSNMSXpWKLAtVTrlF0upT9sA414iL79wqDGucbGAZDuT1iUki3yEv7nlVBTsvoXCxJ6Mpaxbm2vnbDqJa2MsLB4+Sqaq4DJuT+N+KmLuuXmCVutTVbnUvDz1RMXNz9QIl0BERg6pVCFVTF/+HLzmelFjDvtu6eu4RS64NiSZiRvrzzZdmcd8YEfl//b/dk3ZGFtyuYj83WsrnM1Wzoa/QHCK3WX0e6RxfVhQ3TL9WJBq0c8TcQwKGWPjx/jpGpexKwKbRvNxCGFTAu9d3x9fmPFok0LxJvFj3UKSQMrvkoKMUIzonMolMLhvyCRsnzA95ypwXpKjdf83vLWHkcm63dOPn5Ux9fYyKGbJwxqKZm2VrkcysankliIINNEWxSr+VVYRlT4VaZLDEmpnQ+mNKkC/g2PUtCSZWo2WHQT1YrWMs16Lo8Pz+BLZuxdeU4eKffdG4hS6Viw1nDzBZzLgRqTurmWUuiQW5sqdl1dtK+4YVAKOef3nZ3HZB9f5NHC1DhrmztMdwCD9y7Rme/uJ+8OPJQB1rvFsd5EHXqHscYP75iO7rLn4/s+FZM9ZS6NFcy5LNoYkO5lT8bsHXxyMgrqM0qdQLBTPSxCMk8gITDm/eLiZNddQwL8w1M3rH7uvaM94zVhZs56TG5fi9MKoND3kV8ln39UOkeHnqKETimeSs3iXUri4lGlQrdzvWx0atFJKlg5T3K6Yob7bnmL8XSPqqXAn/klljYXUzQ/fHnWzgdRNXP1qIFeNv+nqOg2T5nvZx9OwKvdqRiHTdJTuIf+MCgFew3a6PhP1RiMSmqCLPL0OBvNRuMAx9JYbge4dXbOq7PsVK0+mQZT5ruuky30t3eXVc+lb3TfRPV+wdqcq5+xD2VzXodDKd6SypaT8jnzSxeWbUPfkpy9IheytDhptsPirFNkiK7y20T+rHeNqoKEQSk1p42kuiwkKzc3D9mWF7SeiCeskN02m7QBU7Ur04mhxg64RujVhy5kLYWcMcKdmG22cZMrfZvdmMhfmOFe7tCOsr4lLZcBLS0A0e3FzcXpHBEfFw6lIIXU2Dw7xEG3dRZPFCcVu7KAFDPfkurUT8m8Mn3w2ZB2L3JzKUvnNzSM5tmk/HQAAAnz0FJstuKN0tKkOomU5o2JunzaKG5sxsqgoC4MSmltdHlB7cegrrUGUDrhbByNGHDB2dXxp/NrNoVKvzVjsEozs7aJjSTFnjQ0MdtIdRO2WT400nVhUcpZXwDKxznDdG75xIXIoa9Ed9LFmaFn6s4w56/XPc8L1R8GpZxCOBHxStuRu48QPgH8qXAo5ZZCB3V/UniJ6rwwQimDFj9nkvjFINzb6SLgHcX7KgxKeSekSaLlz/3cpyONI8JDub3TenAVHqW4GLznUWVy+pw5uG45Azxiu4NUX1iUQgrOrNUsvcrvE6IF4O8DEXgqob2XciSk9cH8wpGFI9wV4nHths0zUPWHRSmkwDPnCfkK4SdTPSTQx9UP449/h8+Djc6lHJI483FdaoKql35E880+PEppeWmpOupfE0IN0kIcYrqaB38Gt9VH4VF/A4sbLqV8Sx1KSLiUCiVP32fCo5RveiGFhEupkDL1ecgIpcxrKZ9sTAeERynT2YX0gKCUGzZBKRcWRihlUEu50oyER1DKKIpCS7mQElrKBYWOR1BKBxTdIEEpFyyvh1JCS7kqzcsjBn5uOMTAz4WFkYGfmEu54PLyCEq54RCUcmFhhFJCS7ng8vIISrnhEJRyYWGEUkJLueDy8ghKueEQlHJhYYRSQku54PLyCEq54RCUcmFhhFJCS7ng8vIISrnhEJRyYWGEUkJLueDy8ghKueEQlHJhYYRSQku54PLyCEq54RCUcmFhhFJCS7ng8vIISrnhEJRyYWGEUkJLueDy8ghKueEQlHJhYYRSQku54PLyCEq54RCUcmFhhFJCS7ng8vIISrnhEJRyYWGEUkJLueDy8hik1DR2snhEJ1HzaIaXXA8vsFfJ5Hje40qhGPoEsQI7lj2iw4EeDJsZuT6BewgE//C+PW34kZGwGPgE8Sc2KHzUVqGDsgUb7u35QuIO6dnHmVrP6yT6M7oRqAJ5FRZXDwaO4i5SaD6F8nuDU2pJb/uT0DLUfQqHkbDmgAXlW+d8wp4fj+j4CZJBKXWTG1DM8MWDlooN9lXvixz4rXoc8Rg+DCGlgAORPgSlVP6HnNamZBOuaaxdi19j7LGm1umrYJSSilb/jRlLziFpU0Jyk4kHmprGztlswLaKUxxYzk6NCSR4VIMgaKk2VbawXI+dX3xrFXtg3sw78A0kSZM736ZKA/E906rZ6Q36ofwc+1FpAl538h6CuQON+Wp2DrDbv3+n9E4ubP8NzyW3fw8rge+V2cG0lExD3Ti+xJRr6zcVnUce8Q8U7mDvn1yzQrArs0KkOU+09SMLNgHVNj02m7CZ+G3QUs6NGvTkwJkc1WbS43F3M8w+ASEC7z1Rdmi6PkzLoPtAph4ojjA53mRD1ckhI04n0FzQli1gz8ybc3TX2jszLn4zM57HX6uOK1Q9QR+O39wOgBRuYYvJoIk8jHCytjViLHvHk2u6J817CmZtiTUHBQdha8+UFMM1ASsE08rp3IdF9b1ey60ed4oaX5htSgKklsvPNArk5Obsc2f6vrn7D4nf7I6a2jcrjjO9tdzs/ECCzXxbNuLqhi6qV211ulHzi3WDTQQ2LwefG/DTic05bd5KBV2GZ4uBK5BXrmkpJIqdxzmAxh3fZTiIM5OcljGf6ZubMgcRAbeDF0misvrycMwHkRBCT0x+YNFROCae4IIFj4F9MjNGAlEzeBLhxQg0DAmccsFXw5P5oK05aISHokDs3PmA05KHTwS/Ni0Ekkzlp5NF0hkRAjtBpi4+aqMxIoVOqRV6xxrCASRgvmqPh2Pig/yTaKd/xE+HI5vvNR92HQFF1MHEcBASBqWwhfRzORlaCrv0Plf2ar7IHcazpwcBG1tDS4XeGT4aaGFTKhKSYT76vFoq9EKY0FKhZ+LvycfQUv7yChQecS0VKDPnPWgpTinn5cv5FZQKry6elVJoULnPrqWAn6CUZyMSlPJEw7z/WSkltJTQUn6arBj4+QEmWLDQUmLgp99GBKX0cQkWKrSU0FJ+2oiglB9gggULLSW0lH4bEZTSxyVYqNBSQkv5aSOCUn6ACRYstJTQUvptRFBKH5dgoUJLCS3lp40ISvkBJliw0FJCS+m3EUEpfVyChQotJbSUnzYiKOUHmGDBQksJLaXfRgSl9HEJFiq0lNBSftqIoJQfYIIFCy0ltJR+GxGU0sclWKjQUkJL+WkjglJ+gAkWLLSU0FL6bURQSh+XYKFCSwkt5aeNCEr5ASZYsNBSQkvptxFBKX1cgoUKLSW0lJ82IijlB5hgwf9zLfXI27kEQ9/P/f/7V71hbhZjZtMxz11mvMcroQthdtMxTxmUCAkhm990zEOMkIXApmPdOQY2J/PIy6/XWwg/VDEarNAm+xPODklGMwoU7xVrqXHjm44FQiC0exj4xd9HeNOxUCQpiPSmY0aEkMk6/zHyAz+ZZrNPssNxezmrbK58L5wkPJ49OQi4U6Y/pJ6NUjJt7CSF45q7D20hpJCQ7gEFhEiYDUmIzqTmornO2c6QHp5tb/RqkDOhJYO8m7cmQwFBlXpnw0MI7KS9YLgsnUkLx79Dw+1hHjtZ7uqQ6ZoV1JaE5eamlsJ63uPh2l52iT1T3fIZ9D0bpRTKNbcXdIRi71a5UVJodjRCyZpLJmrN6paC7POm9yE3l52f2JkWlxAy2e+fZxvybHdDlamld0ix2l+Ik3+zkDYrfEZKpc43t7aH4RISzD+ckLzqsU2qQjUsZ8F8KtoToeSvPbkTe+WppuxseLkyRClCF6Izds59AJBMM3HvkkzI0BpW1TkzqlyOKfCk1HFPh4vl7vDn8ck0wCllPvNnpFR3fMDzG8yXJfgTOKOjJMcNk4IjzL64L4M/H5kYMi3uejYdC8t8+im1TGepblUpU97W8dMjgY3lU92YynTcC1z4DDXkf3LknEYp85x6TkphZu3XEGTsRrDtqR/eV+T0VC9K1WBXemNZRTIWZaZ5Uyrb5FkBXsI8LKSxa4VyCrwoFdf39EjYadibUi9WS5lgKvZExwbOioknwovq6pMU6g58ypArZgQ9MFUV+FDKfD8UpkSyD6WeRUvleGspUOrJkfDRUi+PUuYxUSipv/fpseRHij4PpXy1lHnQwqMURjYPtZSgFIcUA7+XRylHXe80VBh1fz4t7l59+mM0enjx/ky3u9j7/6UUIBCU0lrqK9FSMn3r7f8w+sGoGx01HtdomvrxRkfYvqAUn38LSr0aSnFBcTJ5xkDWxpBhZ7MZjhpexOL07nWXkU9oKa1V4e8zWfzEXMpVA3oehxGdTwtAqatWV8vVi/xcYQpfluc89/j/SymhpVwN8JEGfrLkbGWgw4P1lK68g3k83kuBUv1jJIVnmHuUpyVBKbUexcDP2ZwjQCnZIqnOIulyJ3Tbk7eWAqXcNHWK//y/kddSOPrUFGYwokfe4sfPXzUD7qNoKfSBpoTAYCbyAz+z1YEX3A9e9YZn8QOyqqur6nQ2C7k0ecg1fzdTS3jItXqCD/zeCqUcGDmhMgWJXuTQKBV5KUIxT2iNJIJQhEApR0ONmBBhU0qmxvV3mdnx5+fDd9vLfNbDXSbrsqte0OKcXYSmX96mlkLVKdZSfryzs9NREXP8AT86t7sGzQAWEqW4FHa/UpCyXJOTbUqIUAZ+0EGypdQOHPTb88TYUZGpc7BD0VIYEqA++An2OvWBlbdJ32MrTC2tigCl0v+upP1qGPz7frBhvKRGE6yj0+YUsKOCfTdTOe4G9ia1FE5ZbmrIHY89qWmt1alErNB7188azNRhKJTCM5UNawVfM9/PjtvdiLt4PZSzxSbNCIGimNdSstL85W78cG+l8b5Gp4koH0/ZzWNTCmtrt68TS+LLdwbvfQusUOvmL3bre8MHM3dA2JRCUphObGmIpJ/srjxoJwp1sm0dvNwi+PW9RS0l08TZn0aivD+jrOcBVA4gLL/MfcQZAqXQjvpWbERlVb2sX2+6ItE6SzHTkKBmzFNKqfiM+YGlfZ6xdp0motA0639kSuGF52JVHsmNl/3sVL/Aveyj/g0/DTcSlLJQ/SpfLMpX2k6zQWhxWZFgnUMIn2kvcErBBCg59ZYfUXyC36CWkqnj8D0Awtx/Y2SUU4qbIR0ld/gUlVLOYI/7PgBpAeYpJVN6Ihar88rpSG1DKjwTDymwtp26WJFqYVXz8LjtRwgUxSylZLrbQ9a82WSzHceSTEfyaoYSfWJX+PzJIZohIUzOpRRqnt/R6mCB/USxPTLRvDL1cC1lQohIUErhlFL7OgyO90bKvFB/jVrK1by8SqJ/YdbiF79PFrReWaIVvgxRbchqfq4/slNL8Wj8fhBxzFOKKKdLk8JCA7/QjtSi06CcNgAAIABJREFUeYqiUco54dPu6JffEQoZTVJKppo4SbXoSWTj5lx3LlqBAdEnh5biAW7x/Atidi6FNOejnfWRPQfm8LQd2XM/ZxKnlAMJ9Y52278QkaUUiDVbPUC2scGDJVtnUWzzP3yVywd+NBg3tWV2T4oQtJSqHrXSyqplX8XIf/H17ph7xBSlZOqsbnb0PjTTxZtJR0KC+lm1LEv5lTYuDyiFuVTjkDpjlm0JQ84eUk9YHt+sER1f0lc73ptj+g07EqUntW5ofaIsbVQWk6qlJkkpK7aqGcwsfHMSz48QkMIcpdAwa53LxBXKHkMns9zarM3rFLkjIUmCEJ9Yhp3sG3laKZs70zVi+ZMBd81pKZl+9GZpaWIEeI6aydpp71CTl2V7XSW8nFKXJHU4qmNiZyNIdUDs8I3obi0FCZTVnOKzWHyffLk1Zq9kJ5xS39ER/IxH9ZhrrSHOpcxlolc9WZ4f/uhF8AgzSanjVM0S6kzh/eLa6X0L11aNRweT45lowqBUhTWRXZ2XoZMc/Jg4VT4TELgQKPVlFdMHpwgyJX3OjIkpRC6YY1Vcpoyv5SkY+KXQXcbuzyS0s9botbnYWfcTzic9fvGoOUoptPyhyZ2kTFnH5YmnXQs8SHr/8bz2sJM4pSzvV1n3JwgxtLI4dfjDI0sdr1lKERXe81I7nEzfF/dP7y/RfciUf30XM34JTw87VoZZ/1fOvffHXUuZnh8vOx/1+I00pRRarSdqjGJtGVPg692apqVKq5o8MjXoNa2lMPdfuf49wWtFpuKDhqqjPq/iG3lxCEXS11sO0Q06k5Qan0LrcDgMdWpWYaqIjhqDpWD/grDzxx1Ev2KZn277RlkF0cqtQv/YO14ev840pRQ63HInKFFWN7JOuPkMyeyZX4gGovYJlJr6d3A9x+IlqixsxMxv1dGd+5HDLKUk+sPUmlLTAybDyDSv5Ccv6J9yO02kjXfQF9Y/eHmUy+qHqGO/nSzDDNrMjwA82DSl5P41V1VjoJnQAw1dwf4hbCi+lSgb4wXqZWtVl7c9LJpo+sBCyazLMV73I8ijUEq2tjG2+gsVtYHG0sn+UnSlR2fgRxSfYNNaCjviHMfunqJ3x7/lxa623DtbwCrwyZLXyrc/7LMLZ50Y3kEmKZXhaVaS6P6KrNTBronOsFJQsSa+A06/2IlFon1Mlxu7bfb0rKirTjcPvXPnVyFQasthoeWPSzApDZGdRjCVoOsYDMCk83VOqaUZC22ztCw6nKZGmuefCvP4+s60lpLogLnHcVDSbIXyKIdh1tK8tYHJyx/w6Au7SVAoLwM2r9uvEKKF5epn7wg1TSmJ7bmrWqJhBiBKUf0Wys3BzKpj7kCllN1Ci2ycyuq/SXmlGWmVgZBAehEe+MlxmUTWKMZ2ulhiE7ewL7CjOz58MO1MaynkoND7qBwHjSxTXnyS6e+iGz+/0uDFETszEM+RgElKjXpSSqEvHyHiAmuh9F7VUsvn6Kp5ogw95Dh9aqudW1oq+RDwLUQIlHK+9OBlgP0oO4+k0iv+mqwgk8/EFUUzT5RiGwuWbhuN+7k0V9J7EhAU81rqlvG+T3OwQWbuIOt4htlUuUp4TIvVgR9eSWewKorpP62dq+2ecj7heND7JzxKKTTYB/jrUP1Qkv+4wQQ2a9U8UUaf2Sq93y2ZAxIfqgIiEWFKKfRt9J9GqXy6WGqbTyLaYYtxDSEoKeCtLkjiIGrLZoPTUrbTj4LuFU5gWbEsOYw56uJDgBPzlazcaIF39pIEuxv/4YlLFoepB4Z+qP90Tincg6oI7kxSKv6nu3OBRDAP/PhzBkoNoZNWZYE43DxhBaUKaI0FLzLSMLnGT6byejzlcJCCqHLlKGoO9ca0TgcgcCO6nVPK0h5l4BsApGJ2LtWUtuGSQoUi/+jLEsNksqBXxQhCaBY/UGqAPNWJU3SfX9OUotN4Nz04Epb3DZecUu0sWROCVEpZQakeaCr39ks+ebsCIkspTFYyP5Q6KSUr2xlzM+iEk2vw8tJA43BJpXlC01IVZ9tpeMuBJEApgKS2HbXKojEp0WEJR9IRjf88rpb6Heeakqiyja1fzzaqlLp0IqRqKU6pVFCqkW9HogqoYaLzNwRKfe91tWZe4MbYg236UMIp5RgHeVGK/dDeOurk7Q4ySym8Elsd0CpHQ11Z3P8t5zAsTyrACzteZG9K5ZIFULgz1POZpZRMB3PoYLWkOBIJ69ELvEcFpX5o9aFpKSelioNXB8QOf+AnUX2P9jJMpt+7yZCMz6Uwp1boOwzoCZjufdrlejRw0/DBKAQthSynM2m4WzVoqZSCnaIv/gI07zhvY6vvvsZu7udS62T23mElFafEv0Ml2VpSLr9BamWitTwrv3yQD/youWsv8dbZyn1EcweY1FLptdOq6uSNpumCWld/w5jDjmlmJMWCG6WYA+NVr1NLNbBPJGFGg7c27hwf+kxTCo0VWxXzt2NcitZB61QhWDtaAnWdOlWKliu1WNxaKn1jdxP6nIoD9opIyJyWQokWU9BAuRAK2Y4sOXONSINrqeyMJF7q6TrMpWBEJ3XgN17fAZGVFp0+0Q2IeUoVd485kMCLnvbi1Qa8UeA2ouLdPcBBNlzz91KcUqsYNGE+aaGmwAvsIkEptCrHdFc5G53m1WRNi2qLQt8GOnVCS32HVQsLyU0yCvHNr0QHpbKptPYrf3nAKQW76NnOdf1hHpV9K2CHC3+rSjIGKesoY3SwkUr/7Q0SXRy0b//ZAnYfE2/YwSq77wCmFrmrdzrJgMimKIX0fqwu8zEp2nDSfhb97McEogPGJGWR8UnvyjFaWTV0upX2WAk1/8KHAZS+p2ldd9Px8pmnlExjI7BWK3y8mx8vTTMbxngflqiUjlVr16cDbkQvghAY+GVZilQ7W0tDIF6jZCYpJWO2f40K4kLYT1rzolaojE6Y1YpGc4KsZvcbMfC7gtYCpX7TLcP+YVRz4lX0hxdmKYUUj8fx8gD1QVSzh1VYaLPcPGGXv/ajnujgk0apUlAqjop7f9nA8JOAPVwktFRp66eb0cHv7cnbFcO5C0ixsfKA7667e7lQWdhCC7nsazvZtlhDJYR/CEKg69C01JdM6J1qNE1OKdRMLHrCLxhaSfSTraHptLNvHElsGKFQMgylrbF8KPZ99zcp7xnLzOJzqTuSZj95vLoJIKU5SiGn6/kfZfgp/ZGTJ9M55hOl71lKizLUM3o8eJmKKiutBsXs6LAxErtlJV9+r3/mXYNfZ55SyP7Tz9+8NqzbmRt0gUGOfflXD1R1Y2p/3+BxdzNRIpbNcotxVD41ZVwd/8juCogHBDRJKeT+7edlMYolJeU0URa28JDy1tndNtE7tjbwZWkF1nR2hde89n70MbYltnfxka8e8gsEH0Cae9XLcV1MqbHiN6/icykwryNrE4tpmaH2/q2jwZwlK0k97ACdywHbQo/H6qerhkHrQEKEraXwLuhw+N27rq9dKZnbdaoWb5rPXVtb24y9y0wZk2mva384l7YTN2PnA9qCfZEKUUtloj1+v6pxzKUuu6f7Vs7ZCHq7nxiMWimvHi2UOke+ofE2oEa/ovdDH3W+lA62sSHcKwWltivSHUtkfOXyCjFJKSSflPO5sOvu+Atv0nlF/Yvf/25lVBKNxURFlewQVa22satEat1lafWt9HmVZXjtNe6VuXoRAqWQ83L5Wfb64vE0JmvUtxs70L6O1aEwzxa1sdQmWq69YTfjy8oWYzBFVs2x3SneaQdw5imF9NI/lt+tF94eLSDnv1dzDe0HbB0jv6zCX2wUmnv4F4vqqaBzxn4N0+z6blTPRTAhTFKKk2Ms8+Dd8FnLADIuHb45+ddUsMtHdhdLrO1+mf7FoToO5dkbtrv1ly632E0u7xEDuLAp5Z12oN7UO6aBq9C0FOZS+Ep/Ee9Q7dw80b0VfdB3/OUIwwuupaDhv3Jr8fQc+pr2faKZjN9QYBiQwcTTytgGvOls8f3vgIrBQ3izlEL68kRCzY66qS8qsT2hjGzqC2n7tw0JVbmc3Ny8kEwdrd9ma/AutHEW2iFgFYZCKUhBjTs1CRNqh6vMjk1QWT4PJMtyPszoeTVJs7M1eXJrc3NlEoaezTaI7VFqHy9ENKulkDX6lNma1nzNQrCRXKdIdRJPWh76htmvPLbT3JxcRwudzTvom1XJAgoBEc1TCmuEN1qbOjWUrQnteTShvYIuRaExE2+abe5skvNQHU3ob7NmMaYJLEQEKMVN0dy5PpTHGF27lvgOFAiHqZqHqRNin8rwHxCyluLVknhIds4d1gXGcKeolIJEg/0Y4Pz4NzJB/xpghlBNOwpM/e+pUtNS6Wy4lo/y1ceC/TFNKafyU9NX88Af/h/3q9ceWWqBD0M9IqjPmDSiq487zIg8A2cmbr93BppUgYVAHPOUcmLMV7U4hXBD8SBDV4QHwnlehkAp3jBUxwFRs3T8Ov1e6fNAVRDP0Af+CFDqQYqRuwxdSwEba+1n4pS6mrKD0soEBnd84Id3TY29x1Rlo5JbusTcvw4vhBT8S2CzXEuhI8LA73IMRjcH1EHKY55SqBPutHRVn3bhCOQ/CHD8qL+BRQhJS/GWwZ2atOrx9DtuOqTQ4gYRIiRKOaRwQeFsrw7J+I8TCiNCoO5Maynk7ciGS+HITxVI9TtvOuNogep9f39eAaW46Ib3nlCN6FBLWOt59W8ez+1FJcN8Z91PJzrlAz8E/YzJ+menlZ6kRUSznKbgc22Y+7E/vWvgd0fTN9xgacCFQCkDqZqJEiKlzGRhIG6IlDKQsokooVHKRAZGor4CSqnKVt10zIDegHVPWzgDbl11gzLJbG6Z6PgS3ikMApe3sS5yNRrzA1vcJBYeKvQbr86Qxd0xlo46tRTeS0Xf4K4BBAWlVJCgTEIY+BnA11QUQakgcIUylyot3YzJg0biemqPf+NHd+yqfvWQG7Y+sqjVSdjUivEBDBaQnTFuPZfptrpqJu9LH8lW2P4vLCRVscQsRepiP9K1z3cCiikopcEjKOVsJm9LSyl0Ul9bMr7OqQTL3SJGwiQ1zdUfDPEQfEebWwyPdIe1Elh8cqBqIaxiiC/YbEXA1/qSku5NKo+rLUm1fuseX9qaDj74E5RSm5LQUk5GocmEvyDJlViEPaFoKQ8RuAYy4NAYVGcosm96glJO+MTAT0PCLKVUywdXAWado+WaeTAki596lp6XcOq2MmoI93GP9tfJJUyotHD1UW6rgNP+GpBWUEqDVgz8VBzwxxylHE2MrzYIxWHJIXd8QZURF6aWMpJF+HGMUAqv5LyKzN/ahZ+zMwWDFj/+ftCzi8AmVmZfFDpz1Ps1Rin+etJTCHzv6A2NXtLGw4yZJ/iLVM/64EJEsD5MUQpryfHif7aM5Hz/xcT6XV+HDwi+R+fMrUoJFZ9z2/7CVmDAhaKlDCQb2ShGKMVz9GhIHt5IyGKQUo8shDFKPRDCE5XIQGH4vZRHJXh4IyGEGUrxb8j/5CTuD59d1psEA2uIKxKxXqyxoW83itWYopRWDa94T3Rr19fcCg/ALB9zEzc9rsOsR0OUUuguJfczOkNHZliBFT886d78IUwZeJcRfC6FT65jzgsdW0QhRxwAu58bg89+ws7dVarglJLJdhgb714siEVRZ7lFZ5ETwgSlQIvMVpiV5fZxfB3nrJsHaGAV7a3uPbx7ZWwUt3qYSUrxnIx+1ftAmie4NKClpLGKD23c1Kg6rNNkS99hy4+UM0QprNb9cY/vzV1CzIykfanEQroIOUMWP7Tm7UwWz82t3OEnN+pszOYUKnxRjAz8AFdT9G6Pa109VuVjR4fZyAlhnFJYpTyVj/c5GIBbu3tUCTAIVWf66u6p2CtAXYbQN46vTfC9Of7jvQ+G7GocbLTDKSVhwxlOKR5b5QqMAYjjqGlvUN/OXIpiWbmzG8SCDpObbHuj4nNliFJ81jzA5p0v2hSqYvzTl8g5I1qKd40zbHTB0XyxHL7XY/+JCMhihFLIRqEldRmalqOyHuo5GPoSG6YUPnqdO1Y/gMRkaaAbqPDFjmpXo3Y62h+slYuq1apKZYkrDsJUSskapVQO4RH+lPqknnRvZi6Fb2TX4hzjHeze0oev6bihxmGAVDdS1vzcq+HmuAdwEIIOSHXqIz48MEypo8SSBq01Q11U3BSAZRx9NUt0gugQ4XfLxS81cdQ48KtCIAZ+VSk9Kg1iBx/4ITcqnlv/6nzOfjGvUUrNgMvC24tDIGcebiG4hG4heLgzIeevQUpJNL+Jj4TVxzH+yQSlVCi0FLkwjrpx5eEQ0AGXlxA+9WGCUt9XHVJgsT8f3Mly0u3HWQ66JasJRxQmV22Q5WiUjbTc2aSNqjLrj3bE2blsqePNxJtSNDNwvCPxRPLGaqizakYrnxMa7fdJtRSvTt6o1Fr1liPglYGBH+orsRKnqqngK3TQCkrxsqvOUa9uP3warfCrRQny1zCljo/vHHNgLMP6V6J+ia1l4fuXS6Hla0wIxDZGqbr1Jpavpi1TXfSluvGYb/auTM0KEXwuhVIpNN955fjuX6azJlVLeebkEMgphfOW8zpwhZig1In63bkzOSzYPq5Y6Ut8Z6fl7Hm2b/3Joj5UWraXWO/Kx5N3cayhgC1Z02+no/smMznrPbTUX0o6GNgb30zHo/fs8JJhF0gfsvM6NblDkrmiO0sS3q8xSk0uf/qgdkgYPn/K4pTCd+K/Uw5/47vs9ouiCmpKmf+O+c7a+GeYDOBZTM0dQHEaW6fn6r6P5wzHpY5vDdspf2m8+6FNwTilbvNutjnQGH4d27tBKQzOm9amsCBfav6XfU512eMrpZTVV/IOH89iVnw9dx+N3aXTOy+KpjcmExdXUwsKSurIklvQ69jsxIUdohuj1HIM1WeqlCI62lApJVPz2VRhEr6S+hs9ZU2PHs8cIunT/OEPNBt8/ZxYe4aZjlT3N/tdaWbJx9TU1BJsBEPRW1t7D1uNQS2FgZ8lB4cAAWB8+rjdjO96oJg6ju7XsbtX3ljVz2S6OE1sx8ZRw7UtZYgmtxbW72/DMzQW/bNjuv7gvjt1nO+u155aMKe9GXIhgd7S8OqJX5OqeuTPqobyW/4VqK0+ltKLU9nh4NjsJMuVaJNNkTLzhbHYymWbdHaEOHW9e95aakyK3SBqwI6Q6cVLrOdPc75rsuiWzEUpNUMjpyBCydhnsqxA4GEpPVLlQwsdV7rw/iglnpb/fsopeNhmdaK7g4xR6vCbsnWgVWF0pYw1hhaa2ftb9ufmK1Xu97Pbv7WrjCUnFaVmsFiw7c9BVlnn+LlER12Mxc/FDXdg+WEmbwOdw/k8GU9nmFItB5SL3Vz5v50D6u3mqvK4pXSsfjUr666bnS4f1qexvqzCglEWN4RFxPt1pUPxqUPUtNnP7hPjlhZqbtjPITxtzf2Ov97OKKXyT+lL9Yb6uGUN6yzT4f2e2bg83LZNLfdst3mv4Bebz1uphRkLDbys8K+1Y+XXNg2d1GM3nq3uaVsBq27iXfTnW5/XNcYpZbWN4itT3iwXJ/JBKYmKN3dmLrEH5AW2/Rn4Mj7CMr4lz3enYRs2mS6vy/LGeu5Ivj1ku5vjW3sz7xj7iPEfbb/jC0W9nAlKteF0FNezMs1uYUNFC31PayJ8ifQVjaSB9Zdin6w5fI3eydgyxB1LtcCEQZ8y+JYU7rlU60Vq0vvWW7aVLlMRHnUn60qfe0xqKUwQBqNT5t5ltken+EvSK333hUwVffWMFRV/5ru52x6C5I7o6zNGqckFiuZqCrAdUxkoZafNKkB2z9A6Rtn5rIJNU+a3Z+g9GhVdfC2FCBNXOUSzDLYMLs8+cMJv+zRg9XbGKfWZOjNUk7XloJFWOaUG30GSP+wWtjeW2lqGlcU92DzANoqtgIYOsZ+pTIfjqJ0RloL9GfARP+ca9Gsfv/ByhrVUfgxZC7h6Ueh6TKUUdZyiSDY2WUaDLO23jVrb2so7FTmRrRPF4+2DTC1t2NYgnvWoazOXf/Fd0GT66FtPhimFvfD2CtDx8pc7wPg9qiKR75nT0z+LXTBYeR3NjLP15HSKZiMzdL0vo8CdUQ2E+okCFTHXmcSeM/i9UNW+FxQmKPXBk1LYsKAbImDrt9UuwmcTm9heBztYl6paysIplY8a21vCH+wgf4UTYDwoVTnc/254+Dx7rVSmSc5GyKbjzM2lFGrP2UZTzMLhW+v+KIVDK5pUsR9mx9eps3nsMvo4lCrqxH5Al7wOfvyG0Qu+mfHa2JTYD+yclBFsOpaOfRfrIXUxYwuUcqDCdtlr45Rq5hvYUetNFEYilmu9dmToq16JoKVoLQa6nJbhA6UU2vxwXhRbwkYs2OBhHuxq51sFWGgLmwRF/4QQGK5fQVf0YF8KO/iVXgtRMRFr9aEUAowN/EApGvhQjFQsd40apar6hxO7JhlLAKV202H84LuupatbRM32YOCJN0cYK2KTl59AApphjxXB7Nz+27fRGKdUHnZ5r+L1cVRDSaAUjI8xXxOHrzAm74iCeix1bxE1Q7UDEFemtZIyUKqtDHzm5tPRfOySce07vjJMKZn2T5Gw0+Hrow/8UiEY1FVKWX0ohSMHSnjbxqe1c16Uah855eFwkkopze9M2vVrSkuh8mPyNUPNDktUk+e2Bp6Y+uv4Q9nDqo3fdU+zaUG8FYZj8OQyjVKOJ/mj6v8umXw8BrUUPtBaGUXzyDrDHt+gFN7SrcxWVjZ/K+Y6oAWKfRG7y0qUDwpJUXy4DFMU9tpKYvjaGKVQsF83GqPtjoPu7YxrKRBpNoN3q583VErJEkusG6tcWG7mlIrRKDWE+5xSUzEqiOm7iXxbcPVsTb7V1BW2qyjP85YAV8DJMKUUy3ghAP8ErvKBH01mJLW2tucnlWEDkDS8KgOlKgBIIXawPm5D2wCLEqMklVIoPHpFjMwwb9DpG41TqozoJBWq7hvGAFxLYWP4i4XWyrrZCZqJwi55dmxAloi/NYxZi7EtCVdTX0D6C9bGSYTiLuGDVlrgk58HzgSlfvRMOJ6HVayUSqrRbSGgBAMSrqVclOL0UbWUQiOqhQmvd/e8KNUaV2CBk6xgO9dSgE3PmdFS2O2tAFtVQyJUwBqf9Wl0UusAiatX+LMDSXl2iOgMVQuFHfY5pdDc+cCPw4TI/CH1QR7XjzNOqdKePgwcqjA/4JQaY60ONF2USkUAtNS3PHTSkJ+WNUo1c2ExQmn71UkNMKI+FMQMpSwUe4r9NlpQddBS5NplX1K1lEXbI4pT6ox2uZZCbmlFnFIftYuJAuz/VfP7oQi4NkEpsOlqg/I+bhB2x0snmvulFUoBpXY1Sv1Bc9pDH/OOHzuArM+Zi1LIahOvi23R6XpQGLT4zZXhCIyrKlK+/HVQ6shxjghUYhQ+SuWUcu5g3Yp9DPlA9btGqTKeL+9dum0UXecrhAlKSfPH6OBV9Gjlgq6vMNZGaWsbAIqbUvswT9ixHaY6lzpQNTw02QUijjFWDQHwqrdysa2V7BKVo9s+DEopLctKflAeMvfjZGoo4BMQOLz5yeTvkmnjO5YH8Gcsy40kbyzj9K8fo+wwodVibbZSMcKwM+T3djuPg0MJVUpxLTVE1qRk9S42oM2nvDperf6cYUphF7gCi/QZTUil1AI6fozn8rCMwqmlHJRq5juT815xNm1WG/hpCBSxbMpBi3vozFFq9sMCreygvKAUDgmJwQ6uioxFMVxLeVEqtQBv6yHFyLWLUgDqFqojWo/Xpihlqb2l5Arkp1IqNi2fQ5E04UupMzQjfOBGuZPawE/t6yhht62udUWnOZjRUjKd3FPWAdqJqqUGoPkgxMQs11IapVLQkLE3qLWZTUMIbEP2q1Eb+KnNrHScrVhzcOOhM0wpPJvQu41a4COlAfS3Wb/e8W9ji+dtD7RULaXPglL5eGJjt1wFax7jT20upa6eqExg9zM4/yoH6ysm2TCg1XVmtBTOJ/rqqVEw7v/UEpubOEiUdBbLjkrvWf96XuPiFVvdr14rYhfrbC6PsqaPv54ncvOVJ6Ua069vJ6dacMbRx/3RyR9p+iZ+h8hGKGWnSd79pK82dGK2rQ78lJlaVBCmt7ADckqVYuCXCikw8Fug83o+o6C/JRZs4IS5lEapbdZ9BEO7jzNIKQufS2EOkrvecZwOyEEpC/aC5OaK4k2r78Cv4qadC1G6NavNpSRkDCtyT9TloO/8gd8yPPDD2vNPIxNHzdBEKqV+oK9A55y9wM0TnloK2+1WX0IIiYqiNUppQkixbPO3jn6AEIa0lESoexT7198a3terlMofKbCjhEcNfC61DdH4mXUqpbKU+XswCl0ieK3OpXgVoA9nPyvG8PvQGacUZEgu+rwMDbh8ecy7r8pfORbKyk5Gt1vPisD2a5bRic4+bTLlYoCfEQ7u/cu4hKG9cIH7/zDWD2vSLwbjeQ5LjS+a64R1oxa7mvIRpI4zMZfS9rPkgHMHWbAd80fI+Lv/N+UP9LO9T0fXvfzQLT5EXT5mLCW66q9Fho1fppUrcMpNKejXcowGDqIqKOs7Zu7l04N6tadmhD9GKCVRCt66wHA1XsgN9FxLoYGzlGJK6PrGG+w1qvAO/b868NuhnbQ7nnL5b6JvGAjiEe6sc2xLz75vkFISRffxkXFS3Bp2fsTIgTO4/SauSe6Ix2j0HTuEUNh9gw9769kBlZX85Dr+C9eYcbBKqODis2l2g7c4qkCef1A6g5Q65EJYlr5iFsLPmAKF8pbaou32y3ILZioZnFL8tDor6D5HlKmOhTrjOwiGr3ktY5xi16bu8ewpgOo3SClsloXRG1aG/TyxIslm9CsSjnV41yFvDzfSTJo6l/qqzqWaWBtUU9QfXm37aOr/2A0eRWawyK6yKc7Ch84EpZDKzPRBYsla9AIf6UNTby6dRjdsadq4AAAfPklEQVRLVFP966a6p7GxP+Pq6hiWs9Ht3F8ZGR82ecW1x9feHy2jxS52995kZGxNdWdk3IzUr138YonYPTlhpPrmw+qsKuRD0RBoeE90rZ06KcULXLNk5zuMlVfDdD3KTlB9axiSYoiKSSXaKboXmarmsSW3QvFxvNd2DvwYa5mXNkov2BzskevsnkcM4AxQylLzZTT++zLemXZfYucLrBwdH8Tm9rk4KvLqE23cpbHa99aqVNbfNzOby1hXJSWvnryvbDgCPsN4H4X3rhBARh9eyLuyh84QpTDG+DdX8h79HL07RSf4dyXt5uhvOq1g9/q2bNlascpGW9LbExk7b846yGCYmM5MpQwkX2CkOnR2w+6/q0MJqKko51IebzmMUArLkb7v/6qowfShqnoIW18OFrCT7WJqH4mKijq10fcYFrVXbMtpY1Pb1k9b7OpjFhWO//mbjHe96dNxrPeL+rocbe8UO8j7IoGg4FoK45e/1xmL32FmKa5GXzL7L5Ydvk+gmRjUx0gN9mJn7HCs9KiXfVhJr4QhcjOJfvf0/as8HiC55p6xPq2Pw6YlmGHqODOU4oVQrKV2WKO0OpbtpfCTZMXMpRStU1bseB2Je1aYxe1WZIcmYFXjkL0Ux4crdjytyFKpxm5goz7q2+mpkprSUunqKh9nCWXaLAJNYNFJWyFLNV6zlGmbjHMtpY2mwKUu7OuHOAlRA1DxbkrNX83PTU1NlczwncFh9uFGD7/OAKWsued7+0WD6Alr6tDPFW1mFg7vId+xteNZvBpaP8ncfzc0vJd5UpRwPXxycl4Oy95111kdeq2z3JOT2DO1c8aAMfXhmgVVKkOUwjqo9ULsG42k6qCDbYnvsrPj1xvRrHLKx0qpODE7M7Oo+QDZfT1qLTqBhHmUPni+P4ax+QWXcLgUEvMKPV/TFJY3Iqj14FoKb0Yn9/fOh8uwyy7aJxUOF2ZuFmGMkB69+QNs2VzLPEkc2E45ydzcHPoKQFLQ81RmD1elEw2tQ8KUBBUK7H5VoNtmjFFqAoXfnOTWoQsov4bE/ZP9deziLb9/h86frr+eZMbnLCdmIru6xfiTk+Fjkpcv14+HUOJ9SNilzeKwL/AqRl/eMPArU5RydtiOdNSfh2nya48w3TiI8SCar2BqMia0lFyibTampoTkR1PUmrdgozELf3PJBxIl2sDPOUGR2/YRhy+OzsRtF6WiMFHX9B3W5jns8bryqYEGKOXxsCcyfqDhsVV4PGHkbweobAU9u0diDq8hSnk95pGI5vUIcEd0COFxj1sy6LeufoBgwSnlThs+z3TVGx4BHhHVUE0ULRSzeczLMSbWcUYo5fWYZ55aTl63nRc+Qqj1YVsp8yyFM7I5SjmfeppfE1oKAuXEQCVqgvGfqEO1Q6O0cpK4ltKhlARbLOeOFZMsL0rNYckH/6A7UpTiqanfg/NJo7q9tfphNnzoa9Vrfugi/3CdX/B7zoMZ+dftalzeBFvRlWoF9PprkFKupPhMU9t0G8YK5MS/snFkr8ZRHBdoNtoH5Q4JtUyt+06UvYUwRik1KTVbXhKenQoMisuh0XDyBITjo30d5BSK56pQuXOC6SUEJAs+8HMUnguhTuI1kTjm8DnqBx6tPjRAOErqPYeEaqYKDVTo1scroBQvAIwhV2O6BVCLxyPUbS2o354gljydQF2p6bzulZHvbkqN86VTGPhhLtXMb8b8VNdtlFUnYADofC/F2NyHJD4Na8GoIBFmH01jOfLx+TGnpXweNxqwMbswsFfMhfZxBinl85zZACwsne1syv6rKwQCTWops9lr8WGHak5qP4jWA4K3AiOUCi1nr6eU5dmFipwsXSheAaU4eqBU4PdSIFJfLSY/aqc38Jmwy+wg58VsbbqMM9A8tNQaKd9VSmmndSDO2JTk1FKWPMbYCltHn7lQiEkgf4Wuzsu9APW8eCJKxbKbn7Aaeubs9D8VpRQ6Ym1xVc5svX8xNHsSSmEl/ygbXVRXkXtLwK+eiFLg9TzrT9EdhqMJGl+J7luCRw4xYfEDmjjUef27Fb8TLZhPEi1eNeGom+wxmLdG+RI1mH8xp/3Kti4/7jkopeyPJmBZH7fxK3QJ9YRX6qyNdZazxIrLn3zlzmSE51IhI5ZfNctbjJ57Kkph0nnRxM05uu6JKAX7e/LFjH8hnkhL0WxVvmPG64PGK6AUr8PgWorHGSv/PJx4F73NB8ayEj15H98whnXwI22s/55ao1ha3Jj1kK1eYQHH6gkfSFsuJ2M21UU+hadXjLXNdW1BS3UXxPWwnmlYButv2FWtHxO/A8on0lIcA7+N2dCyWZ+qDy3AnxBPRClNaP9QPBWlAtTHK6AURzHoXEorojTRubMMay/qHf/P7HSmQw0PLRQX1+3gcLCN4oQOsi5bbbPFxZ18fgvdlJWQxN/20WxCXXFxfmfCbHF+8ezCTNYQ747LEvKLl9vVORkXQtc9EaWwkYefxgw5n4pSqsVPFwVeQ08y8ENGfnYq4XI90cAPOTm2TtED4xVQijclI1qKW4JUp/Vhjr8PCv2gXaqXD8IcT2jPP3jc9/KJKOWbsSvk6SjlytLXA7SeiFK+ebtDno5S7jx9fK+AUlxmI1qKR1Ods5D8wh3ouKf9aHccN3l8V7DL4wrlHv9OUErDRlDK2UZeAaVUWgS1+DkL9NS/glIq4kJLuRreK6AUl9WglnIV6+k8glIa1kJLOdvcK6CU0FLOytL/FXMpFy5iLuWCQt9j6r2UfhKPHyq0lIax0FLOtia0lBOJEH8FpVTgxFzK1X5eAaW4rGIu5aoxH8+LGPihhoQRXauaV0ApMZfyYZFXwIuglNBSrjp5BZTisgot5aoxH8+LoJTQUq56eQWUElrKVVu6nhdBKaGlXHXzCijFZRVaylVjPp4XQSmhpVz18gooJbSUq7Z0PS+CUkJLuermFVCKyyq0lKvGfDwvglJCS7nq5RVQSmgpV23pel4EpYSWctXNK6AUl1VoKVeN+XheBKWElnLVyyuglNBSrtrS9bwISgkt5aqbV0ApLqumpbDv/YtzEhV0Ob99xG93ruvChfEje14EpYSWctXyK6CUQ0v9wq73LrFfjkeh8a8uwf6/lBJaytUkXwGluKzYFzKqNrHIsEv5+tVw3DAjruNMMyfX/7+UElrKP6V6G0lSXojD2bDl6t4sqLCJ2NWtOKNu6wNrMx7baKq68ba24vognuZAqVgXv1wYP7JHf+DnFCmkzM0/rKulAu+A6CWZ+Ry9HndchPm9VGSEwLF4qW7hZDpe1d9C0x3n6Xw4gYpTypFhaVm60X950ljGiFRmNHpY8fAwP09Bc8+lpQpyXDCB0TU4RdGJmlOyR//FCWhpOCnAlY8FG80H3qfXFTVyHuzlmIqtHB0J4mCGuEvXVeRyCZLSw4FfdP+X7Yv3xp1+3It/phLxk93F9glDW9EQcuIUpDzqbWxJmjHy9FjyLZrqcZy1ERH9xXGU1t9tvXBoqXF3z6NS6k94hceJr3oZBQqD3Dk33pTyOPYh0JPqPcV8jnppyrQ47kWpLVOUwsGcEXA4s7HAnQzOZcjYvUkz7m76dWPvVm+16d4wnrIa8wbbxDpr14StT6IdUArHNT6RcwGoUGra15TEkFzKu3U8eR4bwuOTOEvBCRMo9ZcVrIckQmJiEc9//XR80vzz670ZNrcUOLuhZ9hwUdZjCjzjrnlemJKk69e4e9tF7OS49aHL+PMpSz+NR/YfM2V4tN7VIuDJ/1T127gbXJxbGdCLPjCoF2o2rKpqMKRh6LNpKZn6UkJ1RWuJRSkpux+68NesG75wN2Yc5xq/bjYBZ/zJ89jJoq5VdproDDH++zXTc2NlKeer4YIUraeyQ48c1ww/+VC6xKI79xbT2Lr82CPVh3EfXBelHN6sGo/+4Gmvy0Scuxuiw+YQo8XhDXRCzDnwY89GKdfunIHl07+r6pnx4VBmIC4VpaX84FI/O/1QDOAU+rzLD5027bwekQMedOedtoTj2d3Khdt3Q3fez5oQAgRMXQwra5fQ3jJgj14Tjr6MLuPoVRyC6P0PR3uZSCVQVG/pXEIH9jwjpQILFvxuwddQKBU8XRMxJPrcVheZtmUwV06psifNUUcwUKreY/ysE+MpgmT6VJ0vtJQn1GHO3vhSDJx5Zdp5ioBePiwn0RmnVAjOSwoTzzsoZeKJAFFDFQJn+HJKRcZ5CWHmApQaFZQyg1jQuC9AS2Hg9wxaynPgFxSlx4ggtFQgVMXALxA6we4JSgVD6BHvCy0VcXCFloo4pAYTFFoqEFBCSwVCJ9g9oaWCIfSI94WWiji4QktFHFKDCQotFQgooaUCoRPsntBSwRB6xPtCS0UcXKGlIg6pwQSFlgoElNBSgdAJdk9oqWAIPeJ9oaUiDq7QUhGH1GCCQksFAkpoqUDoBLsntFQwhB7xvtBSEQdXaKmIQ2owQaGlAgEltFQgdILdE1oqGEKPeF9oqYiDK7RUxCE1mKDQUoGAEloqEDrB7gktFQyhR7wvtFTEwRVaKuKQGkxQaKlAQAktFQidYPeElgqG0CPeF1oq4uAKLRVxSA0mKLRUIKCElgqETrB7QksFQ+gR7wstFXFwhZaKOKQGExRaKhBQQksFQifYPaGlgiH0iPeFloo4uEJLRRxSgwkKLRUIKKGlAqET7J7QUsEQesT7QktFHFyhpSIOqcEEhZYKBJTQUoHQCXZPaKlgCD3ifaGlIg6u0FIRh9RggkJLBQJKaKlA6AS7J7RUMIQe8b7QUhEHV2ipiENqMEGhpQIBJbRUIHSC3RNaKhhCj3hfaCl/4Ia4WT0RtFQoxwyEmJ/uY46TO3TvPU5gRI8ZCFnESB4zELIQoBQ/uSP05x/pSU1LhS6XP6I8QfjLGPiFdr5UyPBo50uF/HhkHsTAr2AxMkmFkQqnVPFznwukI/+zD/xkKUQ+U8nwS9BSN3VP2lFa1POlQoQsUt2yQumg1DMLISv06UM+jmx7aU6ihauekNFRTBydp8NnfohfY/b9fUwo7p5VT86H8mAEn5mfHGW19zGhFSAkOeYne9j8E+anL+T9z92RZxci5n4rqvZQX8BnDT0sYGkhyzV57nmMsy5pAgcqVDcyfh4bknv3bjik5yL50HD8Wm4k0wue1vD5WvBIjx/jXfzj5xE0h/OnBj+oRGqE4dy1tRCb5nD86m5zeINZhYo//A4vicCcFXcFAq8IAYUO0sI8qRaUqv4iKPWKKl2I+pgIRODwZwelXtoMU8gjEHgWBCJHqcckvkhbIPBqEIjA2gEx8Hs1tS0EfQIEBKWeAGSRxf8JAUGp/1Nti7I+AQKCUk8Assji/4SAoNT/qbZFWZ8AAUGpJwD5kbKQLZLqLFhi+UhZiGTNIyAoZR6zF/gE1p8K90IQEJR6IRVhWgyZmhP3c8r34t/l9rXOiNUrpgF8rAcEpR4L2cdOV6aOfwdp7PD7v8GV9bgvsiDVYyNuMH1BKYNAvcRoMsWxY3xtRB0/2R9BqRdSRYJSL6QiQhADE6gedkt2GCd2WEkHwVaBKZWCH1grZEXBJ3QhpCoeCRMBQakwAXzOx2XqZR9Jgn6yMZZAwkTxnJXhyltQygXF6/NwSkFLQTctsOqhsvHT2mGiwvH51DqyT5+elS0uiNHg09eqoNTTYx6xHJ1aimiTlZMlL5fVk1w6wNgCvZu3pd+yWUGpiIFtOCFBKcNQvbyIMo2wmD8tK31LbQd2stAdK8Dor5ixZitrwKSqpFJQ6ulrTVDq6TGPWI4qpT7enR30ZRZugFKLLBWUygelStt+bhDVhLmrSMQE/V8lJCj1iqvbOfCTKe/nSLPsoBS01A6NVf9a3BA66jkqV1DqOVCPUJ6cUpdklSQLVbFYOyhVr2mpBaLGy9GMzHRBqghBbSIZQSkTYL20qE4tBR79Y21Zbi21gBAqW4w6eGkS/x/kEZR6xbWsqEZ0bCqv0G+2lE4fWTe4tIC51EwDwbQ+zMAs4Z4YAUGpJwY8ktk5FiRhdNc4x5qI/rZlLFBCH177LmOncTttdkcyN5GWMQQEpYzh9PJiwSbRvnLDupIrd7Yb5keqQCzrPWvrb/nGdof3WGzNwvZ6u5hLPX3FCUo9PeaRyVGh2dPh83fDievrRZff81TypEevjVFjYbKteUWuKCocEoyKDNamUhGUMgXXi40s8xWy6ipZsVT2mStJUOqZKyCM7J0fyvMV6A4i8bXo6tFEWIauLkgPI3nxaGgICEqFhpt4SiDgBwFBKT/AiGCBQGgICEqFhpt4SiDgBwFBKT/AvOpg1VjxqkvwioUXlHrFlSdEf4kICEq9xFoJUya+74Rwz4WAoNRzIf9o+cr0bf2jeMn7aPgGS1hQKhhCr+6+QmO764JSz1ZvglLPBv1jZaxQe0auoNRjwRs0XUGpoBC9tgigVFos/2BKuGdBIEJn9X4SveKzVJ9epqDUTayoDz1oniRMoYPduvDwx548o9PkOJhFPZ1F/HkmBPhOs5KdxtKGRX08UxVw/M/avoVHKZk26tlulHDPjUAb20qLauNSMO3nuQX6n+bfxkbzw6VU2ZeWaOGeH4GWimtURMvKXtv4kaiR56uPliYxk32SMfZTZYLdJ4TF76nAfqx8ZHUM/2yDV5GxEwG1HixUKeZSTkSe51coqcfqap4nXc2ILj7ufR70Ra5vEAFBqTdYqaJIz4mAoNRzoi/yfoMICEq9wUoVRXpOBASlnhN9kfcbREBQ6g1WqijScyIgKPWc6Iu83yACglJvsFJFkZ4TAUGp50Rf5P0GERCUeoOVKor0nAgISj0n+iLvN4iAoNQbrFRRpOdEQFDqOdEXeb9BBASl3mCliiI9JwKCUs+Jvsj7DSIgKPUGK1UU6TkREJR6TvRF3m8QAUGpN1ipokjPiYCg1HOiL/J+gwgISr3BShVFek4EBKWeE32R9xtEQFDqDVaqKNJzIiAo9Zzoi7xfNAJySE6iVn5yR0jPag+9aFCEcAKBp0ZAaKmnRlzk91oQkC0hOZzccTNM9pCe5Q/Z7WJbzdfSRIScZhCQqTFxqTakf1ssY642tEfx1M+zsvDOnTBTShFXIPBkCOCMobaYnP3CEFx2+UkIT2mP7BVW12YJSj1ZNYuMng4BmSbYwJOfDyqT3JWaJyj1dPUscnoyBDilqkh6svy0jECpREGpJwZdZPc0CAhKPQ3OIpf/DQKCUv+bqhYFfRoEBKWeBmeRy/8GAUGp/01Vi4I+DQKCUk+Ds8jlf4OAoNT/pqpFQZ8GAUGpp8FZ5PK/QcAgpbB23AuSh9f04L5XZN8L8V7KFxMR8kYQMEipB6X15teDmwYuBaUMgCSivE4EjFHKvtFR5rnCQi7N2phxryeSqXm1Z9Z9HRQKQamgEIkIrxUBI5RSaKe+m925VgIqVNk2Mn7pXsYk0/J9zLKg1GttBELuSCJghFIEsjSmjSw7OCWTlMvemyCQr7xCS/liIkLeCAIGKaVQd0+Og0X4HuQnW+A6SlbwoTwHQpYli4K/oIqsGJhoCUq9keYjiuGLgDFKEVnmr9NsDk5JR5egFCjEk+OcUpwe9cqA/hKU8q0JEfJGEDBKKWmqLO6jgyzFK39ZEueRbXuwWbVayPashXyy1tWRXLyTHhwaQangGIkYrxQBo5RSSuh2RDXyKbSYpVHq/d3nrpjNMlJ+9K0vsdOG9bRCWmdpS8Ftf4JSr7S5CLGDI2CYUrWUt3UMNQVLRR99h5aiztFvRDXsiCwJCXOMJdb1ssTBisElthc0W0GpoBCJCK8VAcOUWiJq+YBv2yX6mEzvOaVymF2SiZ2TJNEeY++ohK0rErWwD+rcKhAiglKB0BH3XjUCZihV1nsLO58tOov+cUq1t0gk1XFK2WmfU6oA+imdKtiVoNSrbhNC+LAQMEEpmaK3ZogGqkilFHgjVR0fsXiupVyUsoJS1YJSYdWJePhVI2CKUnm90dTxMctJqYT7hlkFWsoiUaFTS3FKCS31qpuEED48BIxSSqrl75wuC6SEP2TBXKqTqLn3D15LsVwPLVVIVvrDfnkuB9QVT8yldGERgW8BAWOUkiVpjrA+Yiau4aON7NpcKjPKAvsf5lDpdreWKoWW+gWrRWAnKBUYH3H3FSNgkFKUlZqO9Uf08VcL/5lmNURH7DulJ7Otzx1EuYzFUiofBPKBX4fjnbBfXASl/EIjbrx2BIxQCivRlwrY+Nws0cyUDdbzuWrWu/SRyndjB5Mmd/9SylwaYzdbbewmdWYig7WN/nGvUtcFSFBKFxYR+BYQMEIpmUpn8yeKk6xQPlaM6Taahxo3ZidIHlpOJyveVX2rszU22vInGm3fJEt+R2NdYxA1JSj1FtqOKIMuAkYo5fWge5qkLkLHpTvEK2KgC0GpQOiIe68aAYOUUs8t5AXl/FEvOKHc/zuCtAD+kUdgJygVGB9x9xUjYJBSES6hoFSEARXJvRwEBKVeTl0ISd4EAoJSb6IaRSFeDgKCUi+nLoQkbwIBQak3UY2iEC8HAUGpl1MXQpI3gYA/SimS5LVS7+F1eIUXFr/w8BNPv2AE/FHqcUUWlHpcfEXqz4iAPqUU+rx0n2tzLYxQaODwsCT4Ni1GCyIoZRQpEe/VIaBPKezZsrPJnJuMgVl53ex9Pl/jFxknKBUZHEUqLxABfUrx3S6TWQFWxqoiK7TNeiLGJyQpKPUCm4IQKTII+KfUYMp8uUYjmWxfeqq1PWWdC/uwjE9b96f9VWni+ONY76fF1JdSUEofFxH6BhDwT6nf5V9+laqckun9ReIN94IKKLOmujz/aoHqolkXJuraWUeQFtd1i6eTmIqvQtwhwicQeCMI+KdU1R5dHXHVJFP6pRSTwdedW/4WlhQ2k5TwafOUks4/5DTSxEnPPY7xkKl45XTqDptllo19OT3Ln0td7K0e7e3eIbmw91fDg08SBaXeSPMRxfBFIACl9umsHl/H49+3cprr576Px3L+fVqS9WMtq58djvnA9ody7gvYrwWihTVsin4w2koLOR9YSezPooXiOFaLT+Zlyk7Gs15OUMoLDnHxlhAISCnb6LU6g7qboJ/98P1NxFYu22zPQuWsp7WMBlj/tY2sqWyRGud3SFForxpbko2ze9U4WMkyEvBU2YHPvn6CUm+pDYmyeCEQgFKFRH3dOESAivtkTimZTvqLTg8LWMYMNm9Oxc4t+Qybj1lpiq3RdAEiKrRcvULYyDmTrFh7oXSxbCipqmSvHPmFoJQPJCLgrSAQmFIdH64xC+qrI41SGTFldflDeRN2UKoAN5Y5pSSaA6WK6kEonNc2ksq1VDafO8nUxO/T56GH4z5BqbfSfEQ5fBEISCk7ncVZ6VuL3aGlolI4VbBxMwZ+XCupWsoCLfWOelZxjf9WcRwB11IqpUon2RmNTevlKix+vqiIkDeBQABK7WNo17h6QRWV8KgDv4L6GT5h+lumaikM87gW0iiV8qEMukeh1AMXpXBVxUbLpmt8lJTQUm+i7YhC6CLgj1ISVRWSXaGz2qHjPMyXTvvBnWPGx4FDazOqlnIM/DilNun77iBJiizVt2uUsiA3mcpqWXaVzvsnMZfSrQwR+BYQ8EcphQb3CCaGxriuC8KpUTHVYEjxakbFzHLuF6JFVgIlhIFfEjh2ygpJ+rpajJAvZ4i2xHL4wI+PA69Z1BfN7wWWoJQXHOLiLSGgTylYFo7meqMHwI+DWuyMOX3Qz04aJmi7ty2KZSv221WWsW9Lvmfs9HtHdj8bOShVcn8e/x64naHiwgxWcM1faOG/9NERvW0yBaXeUhsSZfFCQJ9SUDf7fZeZByBFRyVR+l757ce7zWJs4NzQkmSnmb3L4+PNpC8nLS3lR982j49v9yZIal0sb5cUSig8brkszOKUwv9nsdBVPk5QygcSEfBWENCnlGfp8GbJ5VS/Z4DrDj98AM6TPrKCAePAmMotdzzVJyj1ABBx+XYQ8Ecp/mE8TjeEogFLcBYOd3woJ8EG4biW1TgwSTju4ZIzynXNQbJscjuFjxOU8oFEBLwVBPxRKuzyIeGa7783/+omJCilC4sIfAsIPBqlYDJsa0sd1MdIUEofFxH6BhB4NEoR2ReSJL2JFFATlHoDTUcUQR+BR6QUz9DDtOGZv6CUJxrC/6YQeERKweLnh1FCS72pNiQK44XAI1LKKx/vC6GlvPEQV28IAUGpN1SZoigvAQFBqZdQC0KGN4SAoNQbqkxRlJeAgKDUS6gFIcMbQkBQ6g1VpijKS0CAU+o3WZQndrKUIrbGfAn1L2SIOALPpaWoS1Aq4pUpEnwJCGC/c3ZQ15rwxG6nfapA5wP6l4CIkEEgEBYC0FI9bVcZT+36+9mc9pViWNKLhwUCLw4BfMv+5+NzuOOLyB1X9eJQFQIJBAQCAgGBQMQQcJwH9eQ/ESuASEggIBAQCAgEBAICAYGAQEAgIBAQCAgEBAICAYGAQEAgIBAQCAgEBAICAYGAQEAgIBAQCAgEBAICAYGAQEAgIBAQCAgEBAICAYGAQEAgIBAQCAgEBAICAYGAQEAgIBAQCAgEBAICAYGAQEAgIBAQCAgEBAICAYGAQEAgIBAQCAgEBAICAYGAQEAgIBAQCAgEBAICAYGAQEAgIBAQCAgEBAICAYGAQEAgIBAQCAgEBAICAYHAG0XgP+vpUSL7lwRXAAAAAElFTkSuQmCC;" vertex="1" parent="1">
          <mxGeometry x="-120" y="110" width="535.26" height="250" as="geometry" />
        </mxCell>
        <mxCell id="3fPQWfM7E3m9hAF7NcHF-2" value="" style="shape=image;verticalLabelPosition=bottom;labelBackgroundColor=default;verticalAlign=top;aspect=fixed;imageAspect=0;image=data:image/jpeg,/9j/4AAQSkZJRgABAQAAAQABAAD/2wBDAAsJCQcJCQcJCQkJCwkJCQkJCQsJCwsMCwsLDA0QDBEODQ4MEhkSJRodJR0ZHxwpKRYlNzU2GioyPi0pMBk7IRP/2wBDAQcICAsJCxULCxUsHRkdLCwsLCwsLCwsLCwsLCwsLCwsLCwsLCwsLCwsLCwsLCwsLCwsLCwsLCwsLCwsLCwsLCz/wAARCACpAVcDASIAAhEBAxEB/8QAGwABAQADAQEBAAAAAAAAAAAAAAUBAwQCBgf/xABOEAAABQICAwkNBAgEBgMAAAAAAQIDBAUREiEGExUUMUFTVZSV0dIiNDVRVGFxdYGSs7TTIzKT1CRCc3SRtcHEFlKlsSUzNkNEhWJk8P/EABUBAQEAAAAAAAAAAAAAAAAAAAAB/8QAGhEBAQADAQEAAAAAAAAAAAAAAAERIWFBMf/aAAwDAQACEQMRAD8A/WwDIMgAAyDIAAMgyAADIMgAAyDIAAMgyAADIMgAAyDIAAMhjxekv9wGcvGHtHz1LizKjCbmP1eqpdeel4ksusIbSSJDjZEhOqOxERFwjt2Q7yzWfx2PogKntD2iXsh3lms/jsfRDZDvLNZ/HY+iAqe0PaJeyHeWaz+Ox9ENkO8s1n8dj6ICp7Q9ol7Id5ZrP47H0Q2Q7yzWfx2PogKdy8Yz4hLKku3L/jFZPMt99jx/sRmgvSJFJgOyHVvPGTyVuuYca8Dy0EasJEV7EXAApgGQZAABkGQAAZBkAAGQZAABkGQAAZBkAAGQZAABkADmOfTUmaVTYhGR2MjfaIyMuAyNQxtCl+XQ+cM9oStH6dS10OhLXBhqWunxVKUqOyZqM0EZmZmnfFTZlI5Phc2Y7IDO0KX5dD5wz2g2hS/LofOGe0POzKRyfC5sx2RnZlI5Phc2Y7IDO0KX5dD5wz2g2hS/LofOGe0MbMpHJ8LmzHZDZdI5Phc2Y7IDY3MguqJDUqM4s95LbzalHbPIkncbxEnwoEeZo0tiLGaXti2JpltCrHAmXLElJGLYAAAAAAAAAAAAAAB1kAdZAJGjngeH+1nfNvCuI2j6yRRYyzvZC6gs/QmU8Y4mNJlvsURW4iTLmzURprBPmpMRvGhs3cZJud8bZpLCV8XmDg+mARG9IYDzpsNEsnET2YTxL1a7axp11KyOOtZF9xWRmRlaxkR7+2HW401mS83HltamG3PSmW2lpT0d1K1NuIJKlHY8KizIjK29nnBWAfNsaSKeaoP6GSJE582qi0b10wEpxINRrw53O2HIrlc+Cx7Y+lNHlJcOMmQ8onIiG2mdzuuPFLUtLS0k26ZJI8J3xmky3zIiO4pxfAQ2tJKc62ayjz0qNLKo7TjTaXZKnXzikhpOstclkaTuaS4b4e6BWkkBFy3JUjU3HfkykpYQZxG2Hzjua6y7XIyP7uK5FcrlmAueL2CRo54GgemV8w4O+LLZl7pNkl4WJLkVS1Jsla27YjbO+ZEZ2v4yPxDg0c8DQPTK+YcAVwAAAAAAAAAAAAAAAAAAAAAAAAABL0d8A6P+rYfwyFTIStHfAOj/AKth/DIVQDIMgAAyDIAAS6p3zoz65/sJgqZCXVO+dGfXP9hMFQAyDIAAMgyAADIMgAAyDIAAMg6yAOsgEfR9CV0WMhWaVrqCVF4yVKeIxtbodGbWpxEcyWpNOQZm46d00++oLNX6vD4+G9hr0c8Dw/2s75t4VwEhjR2iRsJttPXS5HcQbkh9Zo3O04w0lOJX3UpWoiLz+bLqbpdOaQpDbRklUFmmqLG4d4rRLJCLmd8sSs9/PfHaACaiiUdtxx5McyccXCWszdePEcJs2WbkarWIjMjLh4bjLNGp7CW20nJU0y8w/HadkPONsLYIybJpKlWIivvb2ReIUQAS1UGjqQSdU6nC0TKFoffS42kpG6yNtZKuSiXmR3vwb2Q9s0inxdYths9cuK7FNchx13WJdcU+o3SWrM1KMzUe+d9/xUQAcNJp7dKptOpyFGsojDbRrO93FlmtZ3Mz7o7nv8I5tHPAsD0yvmHBX8XsEjRzwNA9Mr5hwBXyDIAAMgyAADIMgAAyDIAAMgyAADIMgAAyDIAAMgAAEvR3wDo/6th/DIVBK0d8A6P+rYfwyFUBrceYZSSnXW20mokkbi0oI1HwEajIe7l5x85pRAlzk0vURnn0NLmk/uZuE66lL0ZTScKJxk3mZ2M98hqYZ0kZVAjGxJSgl05152PJbVHjsNU/UOsNk6o1meMrkRpMjvczysaD6kBIoDdQagm3NbfQ6l9zAqU8t2Q63lZx4lOukSjzuROGXiIr2TXAS6p3zoz65/sJgqCXVO+dGfXP9hMFTIAAMgyAADIMgAAyDIAAMgyAA8X/AO4QyDIBBiQtJoDCYseRSFMNuPqaN5iXrMLjq3e6wu2vmN+HS7jqH+BN+qK+QZAJOHS7jqH+BN+qMYdLuOof4E36or5BkA+fdk6VtTYELFRTVLamPEvUzCJBR9Vlh1nDi8fB5x04dLuOof4E36ozL8O6PfuVa/tRWyAScOl3HUP8Cb9UMOl3HUP8Cb9UVsgyASMOlty+1olrl/2Jv1R00mG9T6fDiPOIcdaSvWLbSpCFLW4pw8KVGZ2zyzHdkGQAAZBkAAGQZAABkGQAAZBkAAGQZAABkGQAAZAAAAAIdIlsQtG6FIfUokJp8BBEhKlrW44lLaG0ISVzUozIiLzjtTVqeTcZUpzcTklxTLLFQNMd5bhGSbJSo898syM9/wA4m0+Du/RnR1tLpsvMxaZLjO4SWTb7BJcQakGZXLgMr7x8B5l6k0OfLUtx+fH1kqGqnT9XCslcU3TdJMYlumaVFdRXM13uR2ukgHdIrVDjJnqeqET9AaW9MQl1C3GUoPCeNCTNV75b3+49HVqIROGdQhFqmG5Tl32yNtlzDgcWRnciViTa+/fzjhe0fS428hMrAbiK8nETKTPFVVk5c87ngsXp4QXQn17qfOY1u16oU+ppc3NdhL8SM1GstrWYjSeEztrCMr5H3NwG9+u01g+4xPoONFlIcjG2tpbcmUmGjCrFwGdz83jPIdaqlSkKlpXOiJOGRKlY3206gjO13DM7FnkJJaOHa6pvdqS0bhkwgkm8VT2otSU4siM+5Ir5Fwme/pPRRBnNScpJtvKcNhTjb7rzJOzW5ziftXzZso0kR2aTvF4s5B11YmJ5aM6qQ7qZFWQpD0N9bS1I3DLURodbMjsfDnvekb9hx/L610rN7Y8Vl6PGd0eekPMssorN1uPuIbbTeDLSV1LMi37EQ37c0d5YpfPY3bFGvYcfy+tdKze2Gw4/l9a6Vm9sbNuaO8sUrnsbthtzR3lilc9jdsBr2HH8vrXSs3thsOP5fWulZvbGzbmjvLFK57G7Ybc0d5YpXPY3bAa9hx/L610rN7YbDj+X1rpWb2xs25o7yxSuexu2M7c0d5YpXPY3bAathx/L610rN7YbDj+X1rpWb2xt25o6eRVilmfmmxu2Mbc0d5YpXPY3bAa9hx/L610rN7YbDj+X1rpWb2xs25o7yxSuexu2G3NHeWKVz2N2wGvYcfy+tdKze2Gw4/l9a6Vm9sbduaO8sUrnsbtjG3NHeWKVz2N2wGrYcfy+t9Kze2OSLEo803Ci1WtuEhWHFtKpIQvNRXZWsySpPcqzSZlkeeQoHXNHeWKVz2N2x8lKVHZjVF2FV6CiST8d+kxok9LkdmYbq23JRIedIkYkuKJaU5FmeZmILsmm0GOe6pVWqDao0d10nHazLSpuOs0ktRfaXwmZFwb5EN5UunKUhCarVTW42TzaSrMs1LaPeWktZe3nEB+JQVbtZi1bR5uG9SdwJJ6Ww8p55tpDbS3CVkkk2zwqzvvXK4ypmlLqC5iq5Q8LidYSUVRtCYzu4txk002kiu0W+RGot88shReKl05SiQmq1U1qUtBJTWJZqNSCI1JIicvcuEcxsUQph086tWylksmsJ1Cpk3rTa15Nk8Z6rFh7q2K9uASmYejbDkN1msaOtLYdoSzU0/GQs0wEqQ8RKJd/tL29G/cepCKW/WHpxV+iojOyEPme0sThN7hOEtoo6nNz3Vczx2uRZecBdXSqe2hTjlVqqG0klSlrrEtKSJR2SZmblrHwD3sSP5fWulZvbHzC2orkdxDta0XN9DVLjw1InJShjcLb7ZPrJRqJRnj+6abb5XP7w+qRW9H0obSqtUpSkoSSlFMipJRkVjMkkvIB52HH8vrXSs3thsOP5fWulZvbGzbmjvLFK57G7YztzR3e2xS/N+mxu2A1bDj+X1rpWb2w2HH8vrXSs3tjZtzR3lil89jdsNuaO8sUrnsbtgNew4/l9a6Vm9sNhx/L610rN7Y2bc0d5YpXPY3bDbmjvLFK57G7YDXsOP5fWulZvbDYcfy+tdKze2Nm3NHeWKVz2N2w25o7yxSuexu2A17Dj+X1rpWb2w2HH8vrXSs3tjZtzR3lil89jdsNuaO2vtil23+/YvbAa9hx/L610rN7YbDj+X1rpWb2xs25o7yxSuexu2G3NHeWKVz2N2wGrYcfy+tdKze2FF1iU1ZlTz7qI1VlMsnJdW84lskNLJGscM1GRGZ2uZjadc0d5YpXPY3bHPQnmH9uPMOtPMuVmWaHGVpcbUWqZI8KkmZeY8wFkAABL0d8A6P+rYfwyFQStHfAOj/q2H8MhVAYt6RkAAAAAEuqklUnRolERltksjK5ZQJh7wo6pni0e4nqE6qd86M+uf7CYKgDxqmeLR7ieoNUzxaPcT1D2ADxqmeLR7ieoNUzxaPcT1D2ADxqmeLR7ieoNUzxaPcT1CeurK18xhimVKVuR5LDrscoZNaw20PYU699CsiUV+5DakvkKsfxpv5sBtqbbRU2qfZo7xmfqp4lYU1pnZ1L+zR3lE/UTxSfMOKbOnvw5rDdCq+sejPsoxHTSTicbUkrmUrezGYc+cxEhMLoVXxsx2GVWOmmWJCCSdj3V5vEAr6pni0e4nqDVM8Wj3E9Qn7Ul8hVj+NN/NhtOWZkWwqxmZFv022Z2z/SwFDVM8Wj3E9Qapni0e4nqGmBNaqERiY0h1CHsdkPpSlxBoWptSVEkzK5GR7xmMTpjcCOchbbzv2sdhDcckm644+6llCU41JTvmW+ogG/VM8Wj3E9Qapni0e4nqE/akvkKsf6b+bDakvkKsf6b+bAapbbW3dHvs0d51r9VP8A9XzCrqmeLR7ieoQX5NRdqVKlpoVW1UWPUGnLqppKxSDYw2LdX/xO+Y7tqS+Qqx/Gm/mwFDVM8Wj3E9Qapni0e4nqE/akvkKsfxpv5seV1lbWqVIpFVYaW/Gjm64UE0IXIdSwg1E1JUq11FeyTAUtUzxaPcT1BqmeLR7ieoesxJZra5LZPRqPVnmFKcS26goCUuEhamzUknJKVWyyuRAKmqZ4tHuJ6hy1BtoqfU7NoL9ClF91PFK8w07Ul8hVj+NN/NjRLnzn4sxlFDq+N6O+0jEdNJOJaDSVz3UA66U0zsuj/Zo8Hwv1E8SjzDs1TPFo9xPUI8GdPjQoEdyhVfWMRY7K8J00yxNtpQdj3V5h0bUl8hVj/TfzYChqmeLR7ieoNUzxaPcT1CW9WX2Gn33aJWEtMNOPOq/4ceFCEmtR2KVfeIVW3EuttuovhcQlxNyseFREorkAxqmeLR7ieoNUzxaPcT1D2ADxqmT/AO0j3E9Qkqaa/wARslq0WKiPWLCm3fjZiyJB/wDUjXqN75tsBU1TPFo9xPUGqZ4tHuJ6h7AB41TPFo9xPUPRJSkiJJEReIiIi/gQyAAAAAlaO+AaB6th/DIVREh0/SKDEiQ2ajTFNRWW2G1OU581mhBYSNWGURX9g36nSflCk9GyPzYCoAl6nSflCk9GyPzYanSflCk9GyPzYCoAl6nSflCk9GyPzYanSflCk9GyPzYBVO+dGfXP9hMFQSDg1l6TTXZs6CpmFKOWSI0J1pbitQ8wSTW5IWRF3d/u8HnFcAAAAAAAEymd86S+uC+RiCme8foMTKZ3zpL64L5GIKRnYB8srSJ5NPo6236cuS/Tnpsp6S8lLJuR2m1qYSTJ5OLxXIuAkmdjtYe/8QvqOa4ZwY6EPMw2I7+tXOJ9wmTStxolJLCeOxFdPAZqLFYrqYVPJJpKJFJJuE8ZEw0RG4WRLMsO/wCce1xYjhuqcYZWp1CW3TW2hRuISdySs1FcyLgIxJ8EOhVZ+qy0vKVhaeolPkkwlRG228qVKZWtO+eeEuHgIfR9ZDWhtpu2BCEWSSe5SlPclcyLIt4e/F6S/wBxbUiTo54Hh/tZ3zbw91vvSJ63on8wYHjRzwPD/azvm3h7rfekT1vRP5gwCqgm1CbuSVRUqfaaYkSZDT5umhKVEmM44ksS/ORGKWedhpeYjSUkiQyy8gjuSHm0OJvvXssjISj5lzSeS2UpxLMJbZlOSy0TyyeiqjSm4msnWuRIVixnYisRcN7l7d0heblQoOtgPLdxRn3IesNCHVx35Dbja3F2tZGZWVw90VrH9GUeKSnlkwyS30kh5RNoJTqSLCROGRXMrZZjBRYaTbNMdhJtN6po0tNkaGy/UQZFkXmFo56M65IpFGfdWbjr1PiOuLUd1LWtpKjUZ+ca653gj1lRP5lGFFJEkkpSRElJWSRERERFwERCdXO8EesqJ/MowVIp8Pt/qJOjngaB6ZXzDgrcPt/qJGjfgaB6ZXzDoK6KxJeiUyoSWVpQ6yya0LVhNKTxEVzx9z/ETZdeU3NJmKcJxho6eSyU6an5m7HzYtDJs8J4LHffueXc2ud5aULSpC0pUhRGlSVkRpUR75GR5DUiHBbNk240dBsY9QaGm0m1jzVgsWV+Gwg+Xf0pfZprk8zp2sWmTJYitqddebZjoUtbMju0kS8iudysZ2wqw526RIdkOV3WOqWlqqKaZIzuTbW5mHCQm3BmZ+0dqokJWMlRo6iW6T6yU02ZKdtbWHcvvecbkpSnEaUkWI8SrERXPeuduEXKOOseCK36tnfAWN0LvOD+7R/hpGmseCK36tnfAWN0LvOD+6x/hpBXQAjKkVuTUanFiPwGGYSYZEciK8+44p9tThmZofQREWRFkNup0n5QpPRsj82AqCQf/UjXqN75tse9TpPyhSejZH5scx07SI5qZ+0qZrUxFw8OzX8GBTpO4u+r3ytvgLoCXqdJ+UKT0bI/NhqdJ+UKT0bI/NgKgCXqdKOUKT0bI/Nj3S5UyQmoIlqYW7EqD8THHbW0haEJQtJmha1mR91Y+6PeAUQAAD+AZgABmGYAAZhmAAGYZgABmGYAAZgAAJlMvunSTLLbBfIxB8u1RqymJHp6obu4m5EStYSWjFuxctvWRzLHvIst7xd0Rb6RcjU6JMm6RuvLmksqoluzE6bHRYoMW3cMOpTfz2HZsOm8ZU+lan9cJq5LuYQkN6XKcqxKemJdXiSRNIXqjxTkYFxnH3FNlhbuRklsr3ueZD2uLpSwcooztRcxJrLKDffQ5hZbcZVF1WsO2M06wkqO5/5jyK1rYdN4ypdK1P64bDpvGVLpWp/XBUhiJXJT8Rs3q1Fpil1NaDfkJTLbI2Y6Wd0LIzcOy9apBGo8izuWQ79HX6jMjPzJi1mbj5xmkGpKmyTD/RlvIwlb7RSVr9BkOjYdN4yp9K1T64wmhUxGHAqopJJpwkmqVJKSse8RE/YEedHL7Hh/tZ3zbw9Vu+5InreifzBga9GkpRRICCxWQuYhOJSlKsmU6RXUo7mfnMx6r6EuwGWlGsku1SitqNta214VT2CPCtsyUR+cjIBr0hgSaizTWmEqxszylpcK32DrDDy2nDK5GZY8JGXnEQ4mkhFPqJRXmZdTTSX56G1qU62yh2SSojSmHEqxITqiM0qLfMyMfRbDpufd1Lf5Vqf1xjYdN4ypdK1P64kEdMXSV5mMa5dTxNR6USDbNMbEpc1wpGtbWalGpLRpIzUZ71y7o7jW41pOnVNFtZRoVMapq2nkGSXUVBzVOVFSlXUg2tXa5KuWK5YjIXdh03jKl0rU/rhsOm8ZUulan9cUQpP+IYjDb+6JxzKnVp9LJl11BoZZmPrTGkMo+6WqSklERFexne9srdZTgpzSbqVhqFCTiWd1KtUYxXUfj8YzsKlnYzVUTwmZpvVKmZkZla5Xf3+vzjhq1Jgx4rLza5xrRU6IaSeqE95FzqMdPdNuumg9/hIwH0XD7f6j5yC06/ok+w20brj0KqMoaK32iluPJJGeWd7D6Lr/AKj5qhUmDIpcR5xc8luLlKVq6jUGkXOQ791DbxJIvMRAOJFLr6HoGFhRnRFy4NIccWk0qbchPmiS4RqM7EZstHfPuDP9bLbBj6RPNMsyH6ohpc5rdJFrWXkNphO6w0vvOrWaVrwfdMrGWViMW9h03jKl0rU/rhsOm8ZUulan9cDqGhrSdplopB1d5lbFHfqOqdb3Yp0ykpktxjQacOZMGsk4cr2zPPJNaRIYmTJUqoMlT6TFkxiW82SHHGXpD7iJJIyNZoJtCzPIsRmWZXFvYdN4ypdK1P64wdCpZkZGqomRlYyVVKmZGXiMjfsA5bzHdGKjIl63dEymVCatt07qYKS046mOVi3kEZJ9grQu84P7tH+GkR6rRae3SqwtK6iZop01REqqVJSbkys80qfMjL2CxC7zg/uzHw0gOCD4Z0m/9V8uodkmo06IqQmTJbaOPHblOkvF3LTizaSrIszNRYSIrmZ5cI44PhnSb/1Xy6hrqNIlS5jkxl9lCkM0046XULUndEKW5JLWYT+6olYcsy3+CxwdrdVpbsaZLTIsxCJw5ZututOME2jWK1jTqScLLMu5zuMx6rS5TUh5qSgkRsG6N0JXGUySyJSTcRIJKiIyzIzLMT1Ume/G0kOQ7GTMrEUoyUtE4qPHQ2yppu6lWWo8zNR2LxWyufLJoVVmmct+RGRLS5T8EeOpwoymYZP4UuOrQajMzcNV9XYsJFbhMPpNaza5OIMu5zJSTviLEm1vHwDWiVFXqSJ5vE81r20LUSXFNf58CrKt48hBY0ccZepq0utJYYioOQytTr63JzDbjUd3XOWMySS1b6f1U/5RoLRiYUeRF18K0mmwoqpZNuFLYcjRURjbYVxarXPMj7pRWPFcqPqW3WX2ycZcbcbVfCtpSVoOx2OyknYTaP8A8yv+upfwmR6o9Pcp8eSl0iJ2RJXIcJD7j6LmlKO5NxCLbxZEgi4d87n5o/8AzK/66l/CZAVcwAAAAAAAAAAAAAAAAAAAAAAEymd86S+uC+RiCmJlM750l9cF8jEFMAAAAA6yAOsgEjRzwPD/AGs75t4e633pE9b0T+YMDxo54Hh/tZ3zbw91vvSJ63on8wYAVOsA6wAAAAATK53gj1lRP5lGFMTK53gj1lRP5lGAU+H2/wBRJ0c8DQPTK+YcFbh9v9RI0c8DQPTK+YcAVwAAAAABw1jwRW/Vs74Cxuhd5wf3WP8ADSNNY8EVv1bO+AsboXecH92j/DSAjt1Cmwa1pCU2ZHjG6mlraKQ4lvGkmFJM0YrXLgHbt/Rvlan85b6xTABM2/o3ytT+cNdYbf0b5Wp/OW+sUwATNv6N8rU/nLXWG39G+V6fzlvrFMAEzb+jfK9P5y31jTQnWHyrbzDiHWXKzLU242eJtZE2ykzQosjK5GWXiFkAAAAAAAAAAAAAAAAAAAAAAAGDATaZ3zpL64L5GIKZ7whMTCgTK8h6JUla+opkNLjwZL7S2ziR27pW0g076TI8+AdW2op/+HWOip/0wHpVTLdb8ZmJJebirJqbJbNkmo7htE9gstZLUZEaTVhSdsRezmi6QMSFx2nIcuO9IVBU2h1Udf2M1Dy2nVKacUkr6tRGV7+ax3HEp2OUuTJYPSFhqWsnZkZukSFNPOk0TOPE5HNZGZEm9lFfD5zvqbYoceDHiQYdahuR3WJDcmPR5RPHIabNonXCUyaFGZGZGRkZZ/wmx9HEltS0vqbStJMypMRWOxGa47htKMrGeRmWQ6eshBgTYUGOTKY9ddUp159516lzdY68+s3XFqwtEkrme8RERb3AOvbUUzL9DrBZlmdKn5efJoUa9HPA8P8Aazvm3h7rfekT1vRP5gwMaPtvNUiEl5p1lw1SnDbfRgcSTkhxxONJ5kdjLIeq2Thwm1IaedNmoUqQtEdtTrmrZmNOLNKEd0diIzy8QCn1jRLlMQo0mU+o0sx21OuGRGZ2LgSRb5nvEOPbUXP9DrG/yVP+mOeZPps6LJiSIVaNqQ2pteGlzyURHvGkybyMjzL0ATr09WpDDbRu0icl51b2Bk3YN9Sy1rlumvXasrFlbFe/mzGxuuQXWDkNofU1umnRkmaSSajnIZcbVZR3sROJvfxH7ZC26dLKLtVuuVLczrrraZdEdJs8bZN2UhmOkst/2+Ie3jgOzDkYdIUR1yIsx+ImlStQ7IipQltRq1GsIiwouRKseHz5h9SJlc7wR6yon8yjBtqL5HWOip/0xx1GeU6OzGjwqqbq6hSVlrKdLaQlDU5l5alLcQSSIiSZncwF/h9v9RI0c8DQPTK+YcFbhL0j56kTygU+NEkwasl5lUhKyRTpjibm+4ojSttBpMsysZGA+iMRjrqdTMlIgTHITCXdVJSqOSZLjbpM4G0KcJZEZ3saiIjtfeMr7TrUXyOsb/JU/wCmIpswTYmQjPSI6ZIJ0kwtkP4GtY6TyiS4cfWGV72I1HYleYrS58Isxa3GkuGwbEhqQ3u0pDa9UomlxNVjQa21GkzPGkysZ8N7GVh3RJLcyLElNpWlElhmQhK7EtKXEksiURGZXzzzHzr6aYbcRuAzXKbuZqSw2cGkSSTqZBpU4nA6wpNzMiMjtcvHnnQjVOnxWI0ZmDWUtR2WmGiOl1AzJttJISRmbd94hfR11jwRW/Vs74Cxuhd5wf3WP8NIk1OqNyKbVGGYNYU6/BlstJ2XOLEtxpSEldTZFvn4xYiJWiLDQtJpWiOylRHa5KJBEZGA3AAAAAAAAAAAAAAAAAADADIDAAMgMAAyAwADIDAAMgMAAyAwADIZDAAMgMAAyAwADIDAAM5AMAAyAwADIDAAMhYhgAGcgGAAZAYABkBgAGQGAAZAYABkBgAGQGAAf//Z;" vertex="1" parent="1">
          <mxGeometry x="470" y="110" width="446.51" height="220" as="geometry" />
        </mxCell>
      </root>
    </mxGraphModel>
  </diagram>
</mxfile>
